<svg width="244" height="252" viewBox="0 0 244 252" fill="none" xmlns="http://www.w3.org/2000/svg">
    <path d="M181.651 9.41143C181.651 9.59839 181.529 9.97424 180.824 10.5147C180.14 11.0397 179.068 11.5893 177.591 12.1373C174.649 13.2291 170.335 14.2307 164.935 15.0784C154.151 16.7713 139.217 17.8229 122.696 17.8229C106.176 17.8229 91.2416 16.7713 80.4575 15.0784C75.0575 14.2307 70.7435 13.2291 67.8016 12.1373C66.3251 11.5893 65.2532 11.0397 64.5689 10.5147C63.8643 9.97424 63.7422 9.59839 63.7422 9.41143C63.7422 9.22447 63.8643 8.84861 64.5689 8.30813C65.2532 7.78317 66.3251 7.2336 67.8016 6.68559C70.7435 5.59377 75.0575 4.59211 80.4575 3.74445C91.2416 2.05158 106.176 1 122.696 1C139.217 1 154.151 2.05158 164.935 3.74445C170.335 4.59211 174.649 5.59377 177.591 6.68559C179.068 7.2336 180.14 7.78317 180.824 8.30813C181.529 8.84861 181.651 9.22447 181.651 9.41143Z" stroke="url(#paint0_linear)" stroke-width="2"/>
    <path d="M202.566 24.7483C202.566 25.456 202.201 26.2687 201.235 27.1838C200.27 28.099 198.791 29.0294 196.794 29.9449C192.808 31.7732 186.975 33.445 179.69 34.8581C165.135 37.6812 144.985 39.434 122.698 39.434C100.41 39.434 80.26 37.6812 65.7054 34.8581C58.4198 33.445 52.5877 31.7732 48.601 29.9449C46.6047 29.0294 45.1255 28.099 44.16 27.1838C43.1946 26.2687 42.8291 25.456 42.8291 24.7483C42.8291 24.0407 43.1946 23.228 44.16 22.3129C45.1255 21.3977 46.6047 20.4672 48.601 19.5517C52.5877 17.7235 58.4198 16.0517 65.7054 14.6386C80.26 11.8155 100.41 10.0626 122.698 10.0626C144.985 10.0626 165.135 11.8155 179.69 14.6386C186.975 16.0517 192.808 17.7235 196.794 19.5517C198.791 20.4672 200.27 21.3977 201.235 22.3129C202.201 23.228 202.566 24.0407 202.566 24.7483Z" stroke="url(#paint1_linear)" stroke-width="2"/>
    <path d="M218.6 42.8736C218.6 43.7643 218.127 44.7628 216.938 45.8627C215.751 46.9614 213.943 48.0685 211.522 49.1518C206.687 51.3156 199.628 53.2885 190.828 54.9543C173.244 58.2827 148.909 60.3479 122 60.3479C95.0917 60.3479 70.7569 58.2827 53.1727 54.9543C44.3724 53.2885 37.3137 51.3156 32.4788 49.1518C30.058 48.0685 28.2501 46.9614 27.0623 45.8627C25.8733 44.7628 25.4004 43.7643 25.4004 42.8736C25.4004 41.9829 25.8733 40.9843 27.0623 39.8845C28.2501 38.7858 30.058 37.6787 32.4788 36.5953C37.3137 34.4316 44.3724 32.4586 53.1727 30.7928C70.7569 27.4644 95.0917 25.3993 122 25.3993C148.909 25.3993 173.244 27.4644 190.828 30.7928C199.628 32.4586 206.687 34.4316 211.522 36.5953C213.943 37.6787 215.751 38.7858 216.938 39.8845C218.127 40.9843 218.6 41.9829 218.6 42.8736Z" stroke="url(#paint2_linear)" stroke-width="2"/>
    <path d="M229.755 59.2575C229.755 60.4457 229.176 61.7108 227.849 63.0495C226.519 64.3912 224.506 65.7335 221.825 67.0424C216.466 69.6581 208.647 72.0412 198.904 74.0527C179.433 78.0724 152.49 80.5661 122.698 80.5661C92.9054 80.5661 65.9621 78.0724 46.492 74.0527C36.7488 72.0412 28.9298 69.6581 23.5709 67.0424C20.8894 65.7335 18.876 64.3912 17.5462 63.0495C16.2193 61.7108 15.6406 60.4457 15.6406 59.2575C15.6406 58.0694 16.2193 56.8043 17.5462 55.4656C18.876 54.1239 20.8894 52.7816 23.5709 51.4727C28.9298 48.857 36.7488 46.4739 46.492 44.4624C65.9621 40.4427 92.9054 37.949 122.698 37.949C152.49 37.949 179.433 40.4427 198.904 44.4624C208.647 46.4739 216.466 48.857 221.825 51.4727C224.506 52.7816 226.519 54.1239 227.849 55.4656C229.176 56.8043 229.755 58.0694 229.755 59.2575Z" stroke="url(#paint3_linear)" stroke-width="2"/>
    <path d="M236.028 76.3372C236.028 77.8814 235.364 79.4658 233.945 81.0882C232.521 82.717 230.376 84.3359 227.532 85.9095C221.844 89.0566 213.548 91.9229 203.211 94.3422C182.553 99.1772 153.963 102.177 122.348 102.177C90.7333 102.177 62.1434 99.1772 41.4848 94.3422C31.1476 91.9229 22.8516 89.0566 17.1643 85.9095C14.3203 84.3359 12.1748 82.717 10.7507 81.0882C9.33223 79.4658 8.66797 77.8814 8.66797 76.3372C8.66797 74.793 9.33223 73.2085 10.7507 71.5862C12.1748 69.9574 14.3203 68.3385 17.1643 66.7648C22.8516 63.6178 31.1476 60.7515 41.4848 58.3321C62.1434 53.4972 90.7333 50.4972 122.348 50.4972C153.963 50.4972 182.553 53.4972 203.211 58.3321C213.548 60.7515 221.844 63.6178 227.532 66.7648C230.376 68.3385 232.521 69.9574 233.945 71.5862C235.364 73.2085 236.028 74.793 236.028 76.3372Z" stroke="url(#paint4_linear)" stroke-width="2"/>
    <path d="M242.999 92.0226C242.999 95.6944 240.052 99.47 234.006 103.105C228.023 106.703 219.298 109.979 208.428 112.743C186.705 118.269 156.64 121.697 123.394 121.697C90.1476 121.697 60.0829 118.269 38.3592 112.743C27.4897 109.979 18.7648 106.703 12.7812 103.105C6.73547 99.47 3.78809 95.6944 3.78809 92.0226C3.78809 88.3507 6.73547 84.5751 12.7812 80.9397C18.7648 77.3417 27.4897 74.0662 38.3592 71.3017C60.0829 65.7766 90.1476 62.3483 123.394 62.3483C156.64 62.3483 186.705 65.7766 208.428 71.3017C219.298 74.0662 228.023 77.3417 234.006 80.9397C240.052 84.5751 242.999 88.3507 242.999 92.0226Z" stroke="url(#paint5_linear)" stroke-width="2"/>
    <path d="M243 109.452C243 113.333 239.991 117.29 233.885 121.085C227.832 124.847 219.007 128.271 208.013 131.161C186.04 136.937 155.629 140.521 122 140.521C88.3708 140.521 57.9603 136.937 35.9872 131.161C24.9932 128.271 16.1681 124.847 10.1152 121.085C4.00877 117.29 1 113.333 1 109.452C1 105.572 4.00877 101.614 10.1152 97.8189C16.1681 94.0573 24.9932 90.6332 35.9872 87.7434C57.9603 81.9676 88.3708 78.3835 122 78.3835C155.629 78.3835 186.04 81.9676 208.013 87.7434C219.007 90.6332 227.832 94.0573 233.885 97.8189C239.991 101.614 243 105.572 243 109.452Z" stroke="url(#paint6_linear)" stroke-width="2"/>
    <path d="M243 125.486C243 129.791 239.938 134.115 233.853 138.225C227.803 142.312 218.982 146.032 207.992 149.172C186.027 155.448 155.624 159.343 122 159.343C88.3764 159.343 57.9732 155.448 36.0077 149.172C25.0181 146.032 16.1975 142.312 10.1471 138.225C4.0619 134.115 1 129.791 1 125.486C1 121.181 4.0619 116.857 10.1471 112.747C16.1975 108.66 25.0181 104.94 36.0077 101.8C57.9732 95.524 88.3764 91.6289 122 91.6289C155.624 91.6289 186.027 95.524 207.992 101.8C218.982 104.94 227.803 108.66 233.853 112.747C239.938 116.857 243 121.181 243 125.486Z" stroke="url(#paint7_linear)" stroke-width="2"/>
    <path d="M243 141.171C243 145.949 239.888 150.687 233.82 155.155C227.771 159.609 218.954 163.662 207.97 167.083C186.012 173.921 155.617 178.166 122 178.166C88.3827 178.166 57.9877 173.921 36.0303 167.083C25.0456 163.662 16.229 159.609 10.1803 155.155C4.11148 150.687 1 145.949 1 141.171C1 136.393 4.11148 131.656 10.1803 127.187C16.229 122.734 25.0456 118.681 36.0303 115.26C57.9877 108.422 88.3827 104.177 122 104.177C155.617 104.177 186.012 108.422 207.97 115.26C218.954 118.681 227.771 122.734 233.82 127.187C239.888 131.656 243 136.393 243 141.171Z" stroke="url(#paint8_linear)" stroke-width="2"/>
    <path d="M238.12 157.902C238.12 162.699 235.123 167.437 229.307 171.898C223.506 176.347 215.048 180.398 204.508 183.817C183.437 190.652 154.266 194.897 122 194.897C89.7334 194.897 60.5624 190.652 39.4921 183.817C28.9514 180.398 20.4938 176.347 14.6923 171.898C8.87641 167.437 5.87988 162.699 5.87988 157.902C5.87988 153.106 8.87641 148.367 14.6923 143.907C20.4938 139.457 28.9514 135.407 39.4921 131.987C60.5624 125.152 89.7334 120.908 122 120.908C154.266 120.908 183.437 125.152 204.508 131.987C215.048 135.407 223.506 139.457 229.307 143.907C235.123 148.367 238.12 153.106 238.12 157.902Z" stroke="url(#paint9_linear)" stroke-width="2"/>
    <path d="M231.845 171.846C231.845 176.559 228.99 181.208 223.46 185.579C217.941 189.943 209.892 193.916 199.858 197.271C179.8 203.978 152.026 208.143 121.303 208.143C90.5787 208.143 62.8051 203.978 42.747 197.271C32.7128 193.916 24.6646 189.943 19.1455 185.579C13.6155 181.208 10.7598 176.559 10.7598 171.846C10.7598 167.133 13.6155 162.485 19.1455 158.113C24.6646 153.75 32.7128 149.777 42.747 146.422C62.8051 139.715 90.5787 135.549 121.303 135.549C152.026 135.549 179.8 139.715 199.858 146.422C209.892 149.777 217.941 153.75 223.46 158.113C228.99 162.485 231.845 167.133 231.845 171.846Z" stroke="url(#paint10_linear)" stroke-width="2"/>
    <path d="M225.572 185.789C225.572 190.425 222.889 194.984 217.716 199.265C212.55 203.54 205.014 207.435 195.613 210.725C176.821 217.302 150.795 221.389 122 221.389C93.2053 221.389 67.1793 217.302 48.3873 210.725C38.9867 207.435 31.4505 203.54 26.284 199.265C21.1111 194.984 18.4287 190.425 18.4287 185.789C18.4287 181.152 21.1111 176.593 26.284 172.313C31.4505 168.037 38.9867 164.143 48.3873 160.852C67.1793 154.275 93.2053 150.189 122 150.189C150.795 150.189 176.821 154.275 195.613 160.852C205.014 164.143 212.55 168.037 217.716 172.313C222.889 176.593 225.572 181.152 225.572 185.789Z" stroke="url(#paint11_linear)" stroke-width="2"/>
    <path d="M212.326 202.171C212.326 206.492 209.952 210.733 205.383 214.713C200.815 218.692 194.148 222.32 185.823 225.387C169.181 231.519 146.123 235.331 120.606 235.331C95.0883 235.331 72.0307 231.519 55.3885 225.387C47.0635 222.32 40.3964 218.692 35.829 214.713C31.2592 210.733 28.8857 206.492 28.8857 202.171C28.8857 197.85 31.2592 193.609 35.829 189.628C40.3964 185.65 47.0635 182.022 55.3885 178.954C72.0307 172.823 95.0883 169.011 120.606 169.011C146.123 169.011 169.181 172.823 185.823 178.954C194.148 182.022 200.815 185.65 205.383 189.628C209.952 193.609 212.326 197.85 212.326 202.171Z" stroke="url(#paint12_linear)" stroke-width="2"/>
    <path d="M196.292 215.069C196.292 218.776 194.316 222.423 190.488 225.857C186.661 229.291 181.066 232.429 174.068 235.085C160.078 240.393 140.684 243.698 119.212 243.698C97.74 243.698 78.3456 240.393 64.3557 235.085C57.3572 232.429 51.7627 229.291 47.9355 225.857C44.1079 222.423 42.1318 218.776 42.1318 215.069C42.1318 211.362 44.1079 207.715 47.9355 204.281C51.7627 200.847 57.3572 197.709 64.3557 195.053C78.3456 189.745 97.74 186.44 119.212 186.44C140.684 186.44 160.078 189.745 174.068 195.053C181.066 197.709 186.661 200.847 190.488 204.281C194.316 207.715 196.292 211.362 196.292 215.069Z" stroke="url(#paint13_linear)" stroke-width="2"/>
    <path d="M175.376 229.36C175.376 232.067 173.974 234.754 171.206 237.308C168.436 239.864 164.374 242.211 159.269 244.203C149.067 248.184 134.904 250.668 119.211 250.668C103.517 250.668 89.3543 248.184 79.1519 244.203C74.0476 242.211 69.985 239.864 67.2154 237.308C64.4469 234.754 63.0449 232.067 63.0449 229.36C63.0449 226.653 64.4469 223.966 67.2154 221.411C69.985 218.856 74.0476 216.509 79.1519 214.517C89.3543 210.535 103.517 208.051 119.211 208.051C134.904 208.051 149.067 210.535 159.269 214.517C164.374 216.509 168.436 218.856 171.206 221.411C173.974 223.966 175.376 226.653 175.376 229.36Z" stroke="url(#paint14_linear)" stroke-width="2"/>
    <defs>
        <linearGradient id="paint0_linear" x1="62.7412" y1="-0.000179097" x2="130.958" y2="67.2702" gradientUnits="userSpaceOnUse">
            <stop stop-color="#EC6F62"/>
            <stop offset="1" stop-color="#A97C9A"/>
        </linearGradient>
        <linearGradient id="paint1_linear" x1="41.8278" y1="9.06232" x2="152.701" y2="97.5476" gradientUnits="userSpaceOnUse">
            <stop stop-color="#EC6F62"/>
            <stop offset="1" stop-color="#A97C9A"/>
        </linearGradient>
        <linearGradient id="paint2_linear" x1="24.3988" y1="24.3989" x2="155.654" y2="131.741" gradientUnits="userSpaceOnUse">
            <stop stop-color="#EC6F62"/>
            <stop offset="1" stop-color="#A97C9A"/>
        </linearGradient>
        <linearGradient id="paint3_linear" x1="14.6389" y1="36.9486" x2="169.873" y2="153.345" gradientUnits="userSpaceOnUse">
            <stop stop-color="#EC6F62"/>
            <stop offset="1" stop-color="#A97C9A"/>
        </linearGradient>
        <linearGradient id="paint4_linear" x1="7.66612" y1="49.4967" x2="186.712" y2="167.921" gradientUnits="userSpaceOnUse">
            <stop stop-color="#EC6F62"/>
            <stop offset="1" stop-color="#A97C9A"/>
        </linearGradient>
        <linearGradient id="paint5_linear" x1="2.78614" y1="61.3477" x2="200.293" y2="181.559" gradientUnits="userSpaceOnUse">
            <stop stop-color="#EC6F62"/>
            <stop offset="1" stop-color="#A97C9A"/>
        </linearGradient>
        <linearGradient id="paint6_linear" x1="-0.00196758" y1="77.3829" x2="203.293" y2="197.106" gradientUnits="userSpaceOnUse">
            <stop stop-color="#EC6F62"/>
            <stop offset="1" stop-color="#A97C9A"/>
        </linearGradient>
        <linearGradient id="paint7_linear" x1="-0.00196758" y1="90.6282" x2="211.665" y2="205.309" gradientUnits="userSpaceOnUse">
            <stop stop-color="#EC6F62"/>
            <stop offset="1" stop-color="#A97C9A"/>
        </linearGradient>
        <linearGradient id="paint8_linear" x1="-0.00196758" y1="103.176" x2="219.553" y2="212.309" gradientUnits="userSpaceOnUse">
            <stop stop-color="#EC6F62"/>
            <stop offset="1" stop-color="#A97C9A"/>
        </linearGradient>
        <linearGradient id="paint9_linear" x1="4.87799" y1="119.907" x2="218.977" y2="222.071" gradientUnits="userSpaceOnUse">
            <stop stop-color="#EC6F62"/>
            <stop offset="1" stop-color="#A97C9A"/>
        </linearGradient>
        <linearGradient id="paint10_linear" x1="9.75797" y1="134.548" x2="215.908" y2="229.986" gradientUnits="userSpaceOnUse">
            <stop stop-color="#EC6F62"/>
            <stop offset="1" stop-color="#A97C9A"/>
        </linearGradient>
        <linearGradient id="paint11_linear" x1="17.427" y1="149.188" x2="213.717" y2="236.004" gradientUnits="userSpaceOnUse">
            <stop stop-color="#EC6F62"/>
            <stop offset="1" stop-color="#A97C9A"/>
        </linearGradient>
        <linearGradient id="paint12_linear" x1="27.8842" y1="168.01" x2="204.749" y2="242.324" gradientUnits="userSpaceOnUse">
            <stop stop-color="#EC6F62"/>
            <stop offset="1" stop-color="#A97C9A"/>
        </linearGradient>
        <linearGradient id="paint13_linear" x1="41.1306" y1="185.44" x2="191.362" y2="246.726" gradientUnits="userSpaceOnUse">
            <stop stop-color="#EC6F62"/>
            <stop offset="1" stop-color="#A97C9A"/>
        </linearGradient>
        <linearGradient id="paint14_linear" x1="62.044" y1="207.051" x2="172.897" y2="251.023" gradientUnits="userSpaceOnUse">
            <stop stop-color="#EC6F62"/>
            <stop offset="1" stop-color="#A97C9A"/>
        </linearGradient>
    </defs>
</svg>
