<svg width="350" height="361" viewBox="0 0 350 361" fill="none" xmlns="http://www.w3.org/2000/svg">
    <path d="M261 13.5C261 13.9692 260.696 14.6207 259.644 15.4273C258.613 16.2184 257.029 17.0247 254.894 17.8173C250.634 19.3983 244.413 20.8404 236.656 22.058C221.159 24.4908 199.713 26 176 26C152.287 26 130.841 24.4908 115.344 22.058C107.587 20.8404 101.366 19.3983 97.1063 17.8173C94.9707 17.0247 93.3872 16.2184 92.3559 15.4273C91.3044 14.6207 91 13.9692 91 13.5C91 13.0308 91.3044 12.3794 92.3559 11.5727C93.3872 10.7816 94.9707 9.97529 97.1063 9.18271C101.366 7.60174 107.587 6.15957 115.344 4.94196C130.841 2.50921 152.287 1 176 1C199.713 1 221.159 2.50921 236.656 4.94196C244.413 6.15957 250.634 7.60174 254.894 9.18271C257.029 9.97529 258.613 10.7816 259.644 11.5727C260.696 12.3794 261 13.0308 261 13.5Z" stroke="url(#paint0_linear)" stroke-width="2"/>
    <path d="M291 35.5C291 36.678 290.389 37.9501 288.955 39.3088C287.522 40.6676 285.353 42.0259 282.467 43.349C276.703 45.9926 268.298 48.3985 257.834 50.4282C236.922 54.4844 207.989 57 176 57C144.011 57 115.078 54.4844 94.166 50.4282C83.7017 48.3985 75.2972 45.9926 69.5327 43.349C66.6475 42.0259 64.4782 40.6676 63.0447 39.3088C61.6113 37.9501 61 36.678 61 35.5C61 34.322 61.6113 33.0499 63.0447 31.6912C64.4782 30.3324 66.6475 28.9741 69.5327 27.651C75.2972 25.0074 83.7017 22.6015 94.166 20.5718C115.078 16.5156 144.011 14 176 14C207.989 14 236.922 16.5156 257.834 20.5718C268.298 22.6015 276.703 25.0074 282.467 27.651C285.353 28.9741 287.522 30.3324 288.955 31.6912C290.389 33.0499 291 34.322 291 35.5Z" stroke="url(#paint1_linear)" stroke-width="2"/>
    <path d="M314 61.5C314 62.9447 313.23 64.4843 311.477 66.1066C309.724 67.7277 307.083 69.3388 303.59 70.9022C296.609 74.0261 286.446 76.8638 273.809 79.2558C248.552 84.0366 213.617 87 175 87C136.383 87 101.448 84.0366 76.191 79.2558C63.5543 76.8638 53.3908 74.0261 46.4104 70.9022C42.9168 69.3388 40.2759 67.7277 38.5234 66.1066C36.7695 64.4843 36 62.9447 36 61.5C36 60.0553 36.7695 58.5157 38.5234 56.8934C40.2759 55.2723 42.9168 53.6612 46.4104 52.0978C53.3908 48.9739 63.5543 46.1362 76.191 43.7442C101.448 38.9634 136.383 36 175 36C213.617 36 248.552 38.9634 273.809 43.7442C286.446 46.1362 296.609 48.9739 303.59 52.0978C307.083 53.6612 309.724 55.2723 311.477 56.8934C313.23 58.5157 314 60.0553 314 61.5Z" stroke="url(#paint2_linear)" stroke-width="2"/>
    <path d="M330 85C330 86.8572 329.093 88.7756 327.141 90.7452C325.186 92.7177 322.25 94.6686 318.381 96.5572C310.646 100.332 299.39 103.76 285.399 106.648C257.434 112.422 218.755 116 176 116C133.245 116 94.5657 112.422 66.6006 106.648C52.6099 103.76 41.3536 100.332 33.6193 96.5572C29.7501 94.6686 26.8145 92.7177 24.8593 90.7452C22.9071 88.7756 22 86.8572 22 85C22 83.1428 22.9071 81.2244 24.8593 79.2549C26.8145 77.2823 29.7501 75.3314 33.6193 73.4428C41.3536 69.6676 52.6099 66.2403 66.6006 63.3519C94.5657 57.5785 133.245 54 176 54C218.755 54 257.434 57.5785 285.399 63.3519C299.39 66.2403 310.646 69.6676 318.381 73.4428C322.25 75.3314 325.186 77.2823 327.141 79.2549C329.093 81.2244 330 83.1428 330 85Z" stroke="url(#paint3_linear)" stroke-width="2"/>
    <path d="M339 109.5C339 111.849 337.987 114.22 335.905 116.601C333.817 118.989 330.693 121.34 326.589 123.611C318.38 128.153 306.436 132.276 291.591 135.75C261.917 142.695 220.872 147 175.5 147C130.128 147 89.083 142.695 59.4088 135.75C44.5638 132.276 32.6198 128.153 24.4114 123.611C20.3069 121.34 17.1827 118.989 15.0949 116.601C13.0128 114.22 12 111.849 12 109.5C12 107.151 13.0128 104.78 15.0949 102.399C17.1827 100.011 20.3069 97.6602 24.4114 95.389C32.6198 90.847 44.5638 86.7245 59.4088 83.2501C89.083 76.3051 130.128 72 175.5 72C220.872 72 261.917 76.3051 291.591 83.2501C306.436 86.7245 318.38 90.847 326.589 95.389C330.693 97.6602 333.817 100.011 335.905 102.399C337.987 104.78 339 107.151 339 109.5Z" stroke="url(#paint4_linear)" stroke-width="2"/>
    <path d="M349 132C349 137.512 344.587 143.04 335.889 148.27C327.255 153.462 314.693 158.173 299.083 162.144C267.878 170.08 224.714 175 177 175C129.286 175 86.1223 170.08 54.917 162.144C39.3068 158.173 26.7454 153.462 18.1105 148.27C9.41349 143.04 5 137.512 5 132C5 126.488 9.41349 120.96 18.1105 115.73C26.7454 110.538 39.3068 105.827 54.917 101.856C86.1223 93.9199 129.286 89 177 89C224.714 89 267.878 93.9199 299.083 101.856C314.693 105.827 327.255 110.538 335.889 115.73C344.587 120.96 349 126.488 349 132Z" stroke="url(#paint5_linear)" stroke-width="2"/>
    <path d="M349 157C349 162.804 344.508 168.594 335.72 174.056C326.985 179.484 314.279 184.409 298.489 188.56C266.925 196.857 223.265 202 175 202C126.735 202 83.0748 196.857 51.5105 188.56C35.721 184.409 23.015 179.484 14.2802 174.056C5.49183 168.594 1 162.804 1 157C1 151.196 5.49183 145.406 14.2802 139.944C23.015 134.516 35.721 129.591 51.5105 125.44C83.0748 117.143 126.735 112 175 112C223.265 112 266.925 117.143 298.489 125.44C314.279 129.591 326.985 134.516 335.72 139.944C344.508 145.406 349 151.196 349 157Z" stroke="url(#paint6_linear)" stroke-width="2"/>
    <path d="M349 180C349 186.396 344.455 192.711 335.688 198.634C326.956 204.532 314.254 209.884 298.469 214.394C266.912 223.41 223.259 229 175 229C126.741 229 83.0877 223.41 51.531 214.394C35.7459 209.884 23.0444 204.532 14.3121 198.634C5.54495 192.711 1 186.396 1 180C1 173.604 5.54495 167.289 14.3121 161.366C23.0444 155.468 35.7459 150.116 51.531 145.606C83.0877 136.59 126.741 131 175 131C223.259 131 266.912 136.59 298.469 145.606C314.254 150.116 326.956 155.468 335.688 161.366C344.455 167.289 349 173.604 349 180Z" stroke="url(#paint7_linear)" stroke-width="2"/>
    <path d="M349 202.5C349 209.557 344.405 216.465 335.655 222.909C326.924 229.337 314.227 235.168 298.446 240.083C266.898 249.908 223.253 256 175 256C126.747 256 83.1021 249.908 51.5537 240.083C35.7734 235.168 23.076 229.337 14.3453 222.909C5.59454 216.465 1 209.557 1 202.5C1 195.443 5.59454 188.535 14.3453 182.091C23.076 175.663 35.7734 169.832 51.5537 164.917C83.1021 155.092 126.747 149 175 149C223.253 149 266.898 155.092 298.446 164.917C314.227 169.832 326.924 175.663 335.655 182.091C344.405 188.535 349 195.443 349 202.5Z" stroke="url(#paint8_linear)" stroke-width="2"/>
    <path d="M342 226.5C342 233.575 337.58 240.485 329.189 246.92C320.813 253.345 308.63 259.173 293.485 264.086C263.208 273.908 221.317 280 175 280C128.683 280 86.7924 273.908 56.5146 264.086C41.3702 259.173 29.187 253.345 20.8109 246.92C12.4203 240.485 8 233.575 8 226.5C8 219.425 12.4203 212.515 20.8109 206.08C29.187 199.655 41.3702 193.827 56.5146 188.914C86.7924 179.092 128.683 173 175 173C221.317 173 263.208 179.092 293.485 188.914C308.63 193.827 320.813 199.655 329.189 206.08C337.58 212.515 342 219.425 342 226.5Z" stroke="url(#paint9_linear)" stroke-width="2"/>
    <path d="M333 246.5C333 253.45 328.788 260.23 320.806 266.54C312.835 272.842 301.239 278.561 286.82 283.382C257.993 293.021 218.105 299 174 299C129.895 299 90.0071 293.021 61.18 283.382C46.7613 278.561 35.1649 272.842 27.1938 266.54C19.2116 260.23 15 253.45 15 246.5C15 239.55 19.2116 232.77 27.1938 226.46C35.1649 220.158 46.7613 214.439 61.18 209.618C90.0071 199.979 129.895 194 174 194C218.105 194 257.993 199.979 286.82 209.618C301.239 214.439 312.835 220.158 320.806 226.46C328.788 232.77 333 239.55 333 246.5Z" stroke="url(#paint10_linear)" stroke-width="2"/>
    <path d="M324 266.5C324 273.332 320.046 279.982 312.575 286.165C305.109 292.342 294.247 297.95 280.736 302.679C253.723 312.134 216.34 318 175 318C133.66 318 96.2773 312.134 69.2643 302.679C55.7533 297.95 44.8906 292.342 37.4253 286.165C29.9536 279.982 26 273.332 26 266.5C26 259.668 29.9536 253.018 37.4253 246.835C44.8906 240.658 55.7533 235.05 69.2643 230.321C96.2773 220.866 133.66 215 175 215C216.34 215 253.723 220.866 280.736 230.321C294.247 235.05 305.109 240.658 312.575 246.835C320.046 253.018 324 259.668 324 266.5Z" stroke="url(#paint11_linear)" stroke-width="2"/>
    <path d="M305 290C305 296.37 301.499 302.563 294.891 308.319C288.286 314.073 278.669 319.3 266.699 323.71C242.768 332.527 209.64 338 173 338C136.36 338 103.232 332.527 79.3005 323.71C67.3309 319.3 57.7143 314.073 51.1086 308.319C44.5006 302.563 41 296.37 41 290C41 283.63 44.5006 277.437 51.1086 271.681C57.7143 265.927 67.3309 260.7 79.3005 256.29C103.232 247.473 136.36 242 173 242C209.64 242 242.768 247.473 266.699 256.29C278.669 260.7 288.286 265.927 294.891 271.681C301.499 277.437 305 283.63 305 290Z" stroke="url(#paint12_linear)" stroke-width="2"/>
    <path d="M282 308.5C282 313.984 279.075 319.325 273.531 324.299C267.987 329.272 259.909 333.797 249.841 337.617C229.713 345.255 201.839 350 171 350C140.161 350 112.287 345.255 92.1588 337.617C82.0912 333.797 74.0129 329.272 68.4693 324.299C62.9252 319.325 60 313.984 60 308.5C60 303.016 62.9252 297.675 68.4693 292.701C74.0129 287.728 82.0912 283.203 92.1588 279.383C112.287 271.745 140.161 267 171 267C201.839 267 229.713 271.745 249.841 279.383C259.909 283.203 267.987 287.728 273.531 292.701C279.075 297.675 282 303.016 282 308.5Z" stroke="url(#paint13_linear)" stroke-width="2"/>
    <path d="M252 329C252 333.045 249.903 337.007 245.878 340.721C241.852 344.436 235.971 347.827 228.619 350.696C213.923 356.431 193.552 360 171 360C148.448 360 128.077 356.431 113.381 350.696C106.029 347.827 100.148 344.436 96.1221 340.721C92.0969 337.007 90 333.045 90 329C90 324.955 92.0969 320.993 96.1221 317.279C100.148 313.564 106.029 310.173 113.381 307.304C128.077 301.569 148.448 298 171 298C193.552 298 213.923 301.569 228.619 307.304C235.971 310.173 241.852 313.564 245.878 317.279C249.903 320.993 252 324.955 252 329Z" stroke="url(#paint14_linear)" stroke-width="2"/>
    <defs>
        <linearGradient id="paint0_linear" x1="89.9986" y1="-0.000256902" x2="187.85" y2="96.4941" gradientUnits="userSpaceOnUse">
            <stop stop-color="#EC6F62"/>
            <stop offset="1" stop-color="#A97C9A"/>
        </linearGradient>
        <linearGradient id="paint1_linear" x1="59.9981" y1="12.9996" x2="219.037" y2="139.925" gradientUnits="userSpaceOnUse">
            <stop stop-color="#EC6F62"/>
            <stop offset="1" stop-color="#A97C9A"/>
        </linearGradient>
        <linearGradient id="paint2_linear" x1="34.9977" y1="34.9995" x2="223.274" y2="188.974" gradientUnits="userSpaceOnUse">
            <stop stop-color="#EC6F62"/>
            <stop offset="1" stop-color="#A97C9A"/>
        </linearGradient>
        <linearGradient id="paint3_linear" x1="20.9975" y1="52.9994" x2="243.67" y2="219.962" gradientUnits="userSpaceOnUse">
            <stop stop-color="#EC6F62"/>
            <stop offset="1" stop-color="#A97C9A"/>
        </linearGradient>
        <linearGradient id="paint4_linear" x1="10.9973" y1="70.9993" x2="267.825" y2="240.87" gradientUnits="userSpaceOnUse">
            <stop stop-color="#EC6F62"/>
            <stop offset="1" stop-color="#A97C9A"/>
        </linearGradient>
        <linearGradient id="paint5_linear" x1="3.99721" y1="87.9992" x2="287.306" y2="260.433" gradientUnits="userSpaceOnUse">
            <stop stop-color="#EC6F62"/>
            <stop offset="1" stop-color="#A97C9A"/>
        </linearGradient>
        <linearGradient id="paint6_linear" x1="-0.00282234" y1="110.999" x2="291.609" y2="282.733" gradientUnits="userSpaceOnUse">
            <stop stop-color="#EC6F62"/>
            <stop offset="1" stop-color="#A97C9A"/>
        </linearGradient>
        <linearGradient id="paint7_linear" x1="-0.00282234" y1="129.999" x2="303.618" y2="294.501" gradientUnits="userSpaceOnUse">
            <stop stop-color="#EC6F62"/>
            <stop offset="1" stop-color="#A97C9A"/>
        </linearGradient>
        <linearGradient id="paint8_linear" x1="-0.00282234" y1="147.999" x2="314.933" y2="304.542" gradientUnits="userSpaceOnUse">
            <stop stop-color="#EC6F62"/>
            <stop offset="1" stop-color="#A97C9A"/>
        </linearGradient>
        <linearGradient id="paint9_linear" x1="6.99729" y1="171.999" x2="314.106" y2="318.545" gradientUnits="userSpaceOnUse">
            <stop stop-color="#EC6F62"/>
            <stop offset="1" stop-color="#A97C9A"/>
        </linearGradient>
        <linearGradient id="paint10_linear" x1="13.9974" y1="192.999" x2="309.704" y2="329.897" gradientUnits="userSpaceOnUse">
            <stop stop-color="#EC6F62"/>
            <stop offset="1" stop-color="#A97C9A"/>
        </linearGradient>
        <linearGradient id="paint11_linear" x1="24.9976" y1="213.999" x2="306.56" y2="338.53" gradientUnits="userSpaceOnUse">
            <stop stop-color="#EC6F62"/>
            <stop offset="1" stop-color="#A97C9A"/>
        </linearGradient>
        <linearGradient id="paint12_linear" x1="39.9979" y1="240.999" x2="293.697" y2="347.596" gradientUnits="userSpaceOnUse">
            <stop stop-color="#EC6F62"/>
            <stop offset="1" stop-color="#A97C9A"/>
        </linearGradient>
        <linearGradient id="paint13_linear" x1="58.9982" y1="265.999" x2="274.495" y2="353.909" gradientUnits="userSpaceOnUse">
            <stop stop-color="#EC6F62"/>
            <stop offset="1" stop-color="#A97C9A"/>
        </linearGradient>
        <linearGradient id="paint14_linear" x1="88.9987" y1="296.999" x2="248.009" y2="360.075" gradientUnits="userSpaceOnUse">
            <stop stop-color="#EC6F62"/>
            <stop offset="1" stop-color="#A97C9A"/>
        </linearGradient>
    </defs>
</svg>
