<svg width="28" height="317" viewBox="0 0 28 317" fill="none" xmlns="http://www.w3.org/2000/svg">
    <path d="M-110.63 104.719C-78.3755 70.0485 -54.213 44.0771 -35.6559 26.8635C-17.1054 9.65597 -4.19741 1.2397 5.56914 1.62069C10.8315 1.82597 15.3276 3.87539 18.9344 7.71276C25.6283 14.8347 27.7426 30.0984 26.9225 55.3876C26.1021 80.686 22.3481 115.96 17.3362 163.047L-21.0474 523.669C-26.0593 570.756 -29.8143 606.031 -34.863 635.874C-39.9099 665.707 -46.2396 690.047 -56.375 715.259C-61.8361 728.843 -67.9866 742.336 -74.658 755.369C-87.0396 779.557 -101.26 800.3 -120.467 823.678C-139.681 847.065 -163.844 873.038 -196.098 907.708C-228.352 942.378 -252.515 968.349 -271.072 985.563C-289.623 1002.77 -302.531 1011.19 -312.297 1010.81C-317.559 1010.6 -322.056 1008.55 -325.662 1004.71C-332.356 997.592 -334.471 982.328 -333.65 957.039C-332.83 931.74 -329.076 896.467 -324.064 849.379L-285.68 488.758C-280.669 441.67 -276.914 406.395 -271.865 376.552C-266.818 346.719 -260.488 322.379 -250.353 297.168C-244.892 283.583 -238.741 270.09 -232.07 257.057C-219.688 232.869 -205.468 212.126 -186.261 188.748C-167.047 165.361 -142.884 139.389 -110.63 104.719Z" stroke="url(#paint0_linear)"/>
    <defs>
        <linearGradient id="paint0_linear" x1="41.2756" y1="-59.0096" x2="432.858" y2="504.076" gradientUnits="userSpaceOnUse">
            <stop stop-color="#EC6F62"/>
            <stop offset="1" stop-color="#A97C9A"/>
        </linearGradient>
    </defs>
</svg>
