<svg width="192" height="148" viewBox="0 0 192 148" fill="none" xmlns="http://www.w3.org/2000/svg">
    <path d="M42.7235 64.9261C41.2513 64.9261 39.7063 64.2377 38.5863 62.931C37.7168 61.9368 37.2239 60.669 37.1936 59.3485C37.1751 57.9849 37.7046 56.7828 38.6658 55.9647C38.7932 55.856 38.9408 55.7735 39.1001 55.7219C39.2594 55.6703 39.4274 55.6505 39.5943 55.6638C39.7612 55.6771 39.9239 55.7231 40.0731 55.7993C40.2223 55.8754 40.355 55.9802 40.4636 56.1076C40.5723 56.2351 40.6548 56.3827 40.7064 56.542C40.758 56.7013 40.7777 56.8692 40.7645 57.0362C40.7512 57.2031 40.7052 57.3658 40.629 57.515C40.5529 57.6641 40.4481 57.7968 40.3206 57.9055C39.942 58.2285 39.7394 58.7329 39.7461 59.3247C39.771 60.0471 40.0472 60.7382 40.5272 61.2788C41.4751 62.3869 42.983 62.7152 43.8276 62.0043C44.1533 61.7249 45.0271 60.9769 43.4953 58.4748C41.9437 55.9408 41.9464 53.6346 43.5086 52.3014C44.2235 51.6898 45.1939 51.4118 46.1882 51.474C47.4975 51.5773 48.7936 52.275 49.7468 53.395C50.5361 54.2943 51.0102 55.4266 51.0972 56.62C51.166 57.8631 50.7146 59.003 49.854 59.7312C49.5962 59.9488 49.2628 60.0555 48.9265 60.0279C48.5903 60.0003 48.2786 59.8407 48.0597 59.584C47.8408 59.3273 47.7325 58.9944 47.7583 58.658C47.7842 58.3216 47.9422 58.0092 48.1978 57.789C48.5368 57.5004 48.5646 57.0185 48.5474 56.759C48.4899 56.1257 48.2299 55.5278 47.806 55.0538C47.2976 54.4554 46.6145 54.0702 45.9883 54.0212C45.8435 54.0019 45.6964 54.0116 45.5555 54.0498C45.4145 54.0879 45.2826 54.1538 45.1674 54.2436C44.5492 54.7731 45.0536 56.1341 45.6718 57.1416C47.8788 60.7439 46.7892 62.8278 45.4865 63.9451C44.7124 64.5919 43.7322 64.9399 42.7235 64.9261Z" fill="#E7E7E7"/>
    <path d="M48.7765 55.4934C48.5148 55.494 48.2591 55.4142 48.0443 55.2647C47.8295 55.1152 47.6658 54.9032 47.5755 54.6575C47.4851 54.4119 47.4725 54.1444 47.5394 53.8913C47.6062 53.6382 47.7492 53.4118 47.9491 53.2428L49.2518 52.1307C49.3792 52.022 49.5268 51.9395 49.6861 51.8879C49.8455 51.8363 50.0134 51.8165 50.1803 51.8298C50.3473 51.8431 50.51 51.8891 50.6591 51.9653C50.8083 52.0414 50.941 52.1462 51.0497 52.2737C51.1583 52.4011 51.2408 52.5487 51.2924 52.708C51.3441 52.8673 51.3638 53.0352 51.3505 53.2022C51.3372 53.3691 51.2912 53.5318 51.2151 53.681C51.1389 53.8302 51.0341 53.9629 50.9067 54.0715L49.604 55.1849C49.3741 55.3836 49.0804 55.4931 48.7765 55.4934Z" fill="#E7E7E7"/>
    <path d="M38.102 64.6204C37.8402 64.621 37.5846 64.5412 37.3697 64.3917C37.1549 64.2421 36.9912 64.0302 36.9009 63.7845C36.8106 63.5388 36.798 63.2713 36.8648 63.0182C36.9317 62.7652 37.0747 62.5388 37.2745 62.3697L38.5746 61.259C38.702 61.1503 38.8496 61.0678 39.0089 61.0162C39.1683 60.9646 39.3362 60.9448 39.5031 60.9581C39.6701 60.9714 39.8328 61.0174 39.9819 61.0936C40.1311 61.1697 40.2638 61.2745 40.3725 61.4019C40.4811 61.5294 40.5636 61.677 40.6152 61.8363C40.6669 61.9956 40.6866 62.1635 40.6733 62.3305C40.66 62.4974 40.614 62.6601 40.5378 62.8093C40.4617 62.9585 40.3569 63.0912 40.2295 63.1998L38.9294 64.3106C38.6997 64.5098 38.406 64.6197 38.102 64.6204Z" fill="#E7E7E7"/>
    <path d="M82.7253 86.2079C79.8445 86.2079 76.2382 85.8385 75.4438 84.0698C75.1354 83.3893 75.2744 82.6135 75.8159 81.9966C76.0001 81.7875 76.2477 81.6445 76.5209 81.5894C76.794 81.5342 77.0777 81.57 77.3286 81.6913C77.5795 81.8125 77.7839 82.0126 77.9104 82.2609C78.0369 82.5091 78.0787 82.792 78.0294 83.0663C78.6914 83.331 80.2231 83.6554 82.7226 83.6554C86.2866 83.6554 89.1038 83.0464 90.5006 82.4983C89.7459 82.3328 88.4697 82.1488 86.3263 82.0323C80.7249 81.7344 79.8882 80.8302 79.5387 80.0014C79.2858 79.3938 79.4155 78.7133 79.8908 78.1745C81.4027 76.4534 86.8082 76.0006 89.4573 76.0006C93.4092 76.0006 95.7088 76.6626 96.29 77.952C96.5799 78.5862 96.4528 79.3011 95.9577 79.8624C95.787 80.056 95.5617 80.1932 95.3114 80.2561C95.0611 80.319 94.7977 80.3046 94.5558 80.2147C94.3139 80.1248 94.105 79.9636 93.9565 79.7526C93.8081 79.5415 93.7271 79.2904 93.7243 79.0323C93.0729 78.8152 91.6735 78.5531 89.4573 78.5531C86.9737 78.5531 84.8872 78.8629 83.5104 79.215C84.2359 79.3236 85.2063 79.4242 86.4627 79.4944C91.8907 79.783 93.2662 80.531 93.7348 81.6444C93.8672 81.9595 94.0936 82.7975 93.3059 83.6925C91.8589 85.3394 86.8876 86.2079 82.7253 86.2079Z" fill="#E7E7E7"/>
    <path d="M89.4601 78.5531C89.215 78.5524 88.9753 78.4812 88.7696 78.3481C88.5638 78.215 88.4007 78.0255 88.2997 77.8022C88.1986 77.5789 88.1639 77.3313 88.1997 77.0888C88.2356 76.8464 88.3403 76.6194 88.5016 76.4348L89.4535 75.3545C89.5644 75.2288 89.699 75.1262 89.8496 75.0525C90.0002 74.9788 90.1638 74.9355 90.3311 74.9251C90.4984 74.9146 90.6661 74.9372 90.8247 74.9916C90.9833 75.046 91.1296 75.1311 91.2553 75.242C91.381 75.3529 91.4836 75.4875 91.5573 75.6381C91.631 75.7887 91.6743 75.9523 91.6848 76.1196C91.6952 76.2869 91.6726 76.4546 91.6182 76.6132C91.5639 76.7718 91.4788 76.9181 91.3678 77.0438L90.4173 78.1228C90.2975 78.2585 90.1502 78.367 89.9851 78.4412C89.8201 78.5154 89.6411 78.5535 89.4601 78.5531Z" fill="#E7E7E7"/>
    <path d="M81.6581 87.4179C81.4128 87.4177 81.1727 87.347 80.9665 87.214C80.7604 87.0811 80.5969 86.8916 80.4955 86.6682C80.3942 86.4448 80.3592 86.197 80.395 85.9543C80.4307 85.7116 80.5355 85.4844 80.6969 85.2996L81.6448 84.2194C81.868 83.9646 82.1832 83.8089 82.5211 83.7866C82.859 83.7643 83.1919 83.8771 83.4467 84.1002C83.7014 84.3233 83.8571 84.6385 83.8794 84.9764C83.9017 85.3143 83.7889 85.6473 83.5658 85.902L82.6179 86.9823C82.4984 87.1194 82.3509 87.2293 82.1853 87.3044C82.0197 87.3796 81.8399 87.4183 81.6581 87.4179Z" fill="#E7E7E7"/>
    <path d="M86.1158 91.2572C74.4191 91.2572 65.259 86.8261 65.259 81.1691C65.259 75.5121 74.4191 71.085 86.1158 71.085C97.8124 71.085 106.976 75.5147 106.976 81.1691C106.976 86.8235 97.8098 91.2572 86.1158 91.2572ZM86.1158 73.6374C75.3299 73.6374 67.8115 77.6091 67.8115 81.1691C67.8115 84.7291 75.3299 88.7034 86.1158 88.7034C96.9016 88.7034 104.423 84.7317 104.423 81.1691C104.423 77.6065 96.9042 73.6374 86.1158 73.6374Z" fill="#E7E7E7"/>
    <path d="M46.1207 92.6658C43.2399 92.6658 39.6335 92.2964 38.8392 90.529C38.5294 89.8472 38.6697 89.0727 39.2112 88.4544C39.3955 88.2454 39.6431 88.1024 39.9162 88.0472C40.1894 87.9921 40.4731 88.0279 40.724 88.1492C40.9749 88.2704 41.1792 88.4705 41.3058 88.7187C41.4323 88.967 41.4741 89.2499 41.4248 89.5241C42.0867 89.7889 43.6185 90.1133 46.118 90.1133C49.678 90.1133 52.5005 89.5056 53.8959 88.9536C53.1453 88.7907 51.8677 88.6067 49.7243 88.4902C44.1242 88.1923 43.2835 87.2881 42.938 86.4606C42.6812 85.8556 42.8056 85.1712 43.2862 84.6323C44.802 82.9113 50.2062 82.4585 52.8527 82.4585C56.8045 82.4585 59.1041 83.1125 59.6893 84.4099C59.9753 85.0441 59.8521 85.7563 59.357 86.3203C59.2467 86.4462 59.1125 86.5491 58.9622 86.6229C58.812 86.6968 58.6486 86.7402 58.4815 86.7506C58.3144 86.7611 58.1469 86.7384 57.9886 86.6839C57.8303 86.6293 57.6843 86.544 57.5591 86.4328C57.4233 86.3166 57.3141 86.1725 57.2389 86.0103C57.1637 85.8481 57.1244 85.6716 57.1236 85.4929C56.4722 85.2731 55.0729 85.011 52.8527 85.011C50.373 85.011 48.2852 85.3208 46.9097 85.6623C47.6339 85.7749 48.6016 85.8755 49.8607 85.9456C55.2887 86.2343 56.6642 86.9823 57.1329 88.0957C57.2652 88.4107 57.4916 89.2488 56.7039 90.1424C55.2516 91.7986 50.2817 92.6658 46.1207 92.6658Z" fill="#E7E7E7"/>
    <path d="M52.8554 85.011C52.6102 85.0106 52.3703 84.9396 52.1644 84.8065C51.9585 84.6734 51.7953 84.4837 51.6943 84.2603C51.5933 84.0368 51.5588 83.789 51.595 83.5465C51.6312 83.304 51.7365 83.077 51.8982 82.8927L52.8488 81.8124C52.9597 81.6867 53.0943 81.5841 53.2449 81.5104C53.3955 81.4367 53.5591 81.3934 53.7264 81.383C53.8937 81.3725 54.0614 81.3951 54.22 81.4495C54.3786 81.5039 54.5249 81.589 54.6506 81.6999C54.7763 81.8108 54.8789 81.9454 54.9526 82.096C55.0263 82.2466 55.0696 82.4102 55.08 82.5775C55.0905 82.7448 55.0679 82.9125 55.0135 83.0711C54.9591 83.2297 54.8741 83.376 54.7631 83.5017L53.8126 84.582C53.6926 84.7173 53.5452 84.8255 53.3801 84.8995C53.2151 84.9734 53.0362 85.0114 52.8554 85.011Z" fill="#E7E7E7"/>
    <path d="M45.0578 93.8758C44.8126 93.8755 44.5727 93.8045 44.3668 93.6713C44.1609 93.5382 43.9976 93.3486 43.8967 93.1251C43.7957 92.9017 43.7612 92.6539 43.7974 92.4113C43.8336 92.1688 43.9388 91.9419 44.1006 91.7576L45.0512 90.6773C45.1619 90.5511 45.2964 90.4481 45.447 90.3739C45.5976 90.2998 45.7613 90.256 45.9288 90.2451C46.0963 90.2342 46.2643 90.2565 46.4232 90.3105C46.5821 90.3646 46.7289 90.4494 46.855 90.5601C46.9811 90.6709 47.0842 90.8054 47.1584 90.956C47.2325 91.1065 47.2763 91.2703 47.2872 91.4378C47.298 91.6053 47.2758 91.7733 47.2218 91.9322C47.1677 92.0911 47.0829 92.2378 46.9722 92.3639L46.0216 93.4442C45.9009 93.5806 45.7525 93.6896 45.5863 93.764C45.4201 93.8385 45.2399 93.8766 45.0578 93.8758Z" fill="#E7E7E7"/>
    <path d="M86.1156 147.408C71.9128 147.408 60.7881 141.146 60.7881 133.156C60.7988 132.824 60.938 132.51 61.1763 132.279C61.4146 132.049 61.7333 131.92 62.065 131.92C62.3967 131.92 62.7154 132.049 62.9537 132.279C63.192 132.51 63.3312 132.824 63.3419 133.156C63.3419 139.497 73.7716 144.855 86.113 144.855C98.4544 144.855 108.884 139.497 108.884 133.156C108.884 132.817 109.019 132.493 109.258 132.254C109.497 132.014 109.822 131.88 110.16 131.88C110.499 131.88 110.823 132.014 111.063 132.254C111.302 132.493 111.437 132.817 111.437 133.156C111.446 141.146 100.317 147.408 86.1156 147.408ZM86.1156 136.613C71.9128 136.613 60.7881 130.353 60.7881 122.364C60.7988 122.032 60.938 121.718 61.1763 121.487C61.4146 121.256 61.7333 121.127 62.065 121.127C62.3967 121.127 62.7154 121.256 62.9537 121.487C63.192 121.718 63.3312 122.032 63.3419 122.364C63.3419 128.705 73.7716 134.06 86.113 134.06C98.4544 134.06 108.884 128.705 108.884 122.364C108.884 122.025 109.019 121.7 109.258 121.461C109.497 121.222 109.822 121.087 110.16 121.087C110.499 121.087 110.823 121.222 111.063 121.461C111.302 121.7 111.437 122.025 111.437 122.364C111.446 130.353 100.317 136.613 86.1156 136.613ZM49.5151 132.278C35.3123 132.278 24.1836 126.016 24.1836 118.025C24.1943 117.694 24.3335 117.379 24.5718 117.148C24.8101 116.918 25.1288 116.789 25.4605 116.789C25.7922 116.789 26.1109 116.918 26.3492 117.148C26.5875 117.379 26.7267 117.694 26.7374 118.025C26.7374 124.368 37.1671 129.726 49.5151 129.726C52.4666 129.733 55.4102 129.422 58.2952 128.799C58.4604 128.759 58.6319 128.753 58.7996 128.78C58.9673 128.807 59.1279 128.868 59.272 128.958C59.416 129.048 59.5406 129.166 59.6385 129.305C59.7363 129.444 59.8054 129.601 59.8417 129.767C59.878 129.933 59.8809 130.104 59.85 130.271C59.8191 130.439 59.7552 130.598 59.6619 130.74C59.5687 130.882 59.448 131.004 59.307 131.099C59.1659 131.194 59.0074 131.259 58.8406 131.292C55.7767 131.955 52.6501 132.286 49.5151 132.278ZM86.1156 125.82C71.9128 125.82 60.7881 119.558 60.7881 111.568C60.7988 111.237 60.938 110.923 61.1763 110.692C61.4146 110.461 61.7333 110.332 62.065 110.332C62.3967 110.332 62.7154 110.461 62.9537 110.692C63.192 110.923 63.3312 111.237 63.3419 111.568C63.3419 117.91 73.7716 123.268 86.113 123.268C98.4544 123.268 108.884 117.91 108.884 111.568C108.884 111.23 109.019 110.905 109.258 110.666C109.497 110.427 109.822 110.292 110.16 110.292C110.499 110.292 110.823 110.427 111.063 110.666C111.302 110.905 111.437 111.23 111.437 111.568C111.446 119.558 100.317 125.82 86.1156 125.82ZM49.5151 121.51C35.3123 121.51 24.1836 115.25 24.1836 107.26C24.1943 106.929 24.3335 106.615 24.5718 106.384C24.8101 106.153 25.1288 106.024 25.4605 106.024C25.7922 106.024 26.1109 106.153 26.3492 106.384C26.5875 106.615 26.7267 106.929 26.7374 107.26C26.7374 113.602 37.1671 118.957 49.5151 118.957C52.4662 118.966 55.4097 118.659 58.2952 118.04C58.4604 118 58.6319 117.993 58.7996 118.02C58.9673 118.048 59.1279 118.108 59.272 118.198C59.416 118.288 59.5406 118.406 59.6385 118.545C59.7363 118.684 59.8054 118.841 59.8417 119.007C59.878 119.173 59.8809 119.345 59.85 119.512C59.8191 119.679 59.7552 119.838 59.6619 119.981C59.5687 120.123 59.448 120.245 59.307 120.339C59.1659 120.434 59.0074 120.5 58.8406 120.533C55.7761 121.191 52.6496 121.519 49.5151 121.51ZM86.1156 115.023C71.9128 115.023 60.7881 108.762 60.7881 100.771C60.7988 100.439 60.938 100.125 61.1763 99.8941C61.4146 99.6633 61.7333 99.5343 62.065 99.5343C62.3967 99.5343 62.7154 99.6633 62.9537 99.8941C63.192 100.125 63.3312 100.439 63.3419 100.771C63.3419 107.112 73.7716 112.47 86.113 112.47C98.4544 112.47 108.884 107.112 108.884 100.771C108.884 100.432 109.019 100.108 109.258 99.8683C109.497 99.629 109.822 99.4945 110.16 99.4945C110.499 99.4945 110.823 99.629 111.063 99.8683C111.302 100.108 111.437 100.432 111.437 100.771C111.446 108.763 100.317 115.024 86.1156 115.024V115.023ZM49.5151 110.742C35.3123 110.742 24.1836 104.484 24.1836 96.4932C24.1943 96.1617 24.3335 95.8473 24.5718 95.6165C24.8101 95.3858 25.1288 95.2568 25.4605 95.2568C25.7922 95.2568 26.1109 95.3858 26.3492 95.6165C26.5875 95.8473 26.7267 96.1617 26.7374 96.4932C26.7374 102.832 37.1671 108.19 49.5151 108.19C52.4667 108.198 55.4105 107.888 58.2952 107.263C58.6249 107.194 58.9687 107.256 59.2528 107.438C59.537 107.619 59.7388 107.904 59.815 108.232C59.8515 108.396 59.8553 108.565 59.8263 108.73C59.7972 108.896 59.7359 109.053 59.6457 109.195C59.5556 109.336 59.4384 109.459 59.301 109.555C59.1635 109.651 59.0084 109.719 58.8446 109.755C55.7795 110.42 52.6515 110.751 49.5151 110.744V110.742ZM86.1156 104.227C71.9128 104.227 60.7881 97.9694 60.7881 89.9783C60.7988 89.6468 60.938 89.3324 61.1763 89.1016C61.4146 88.8709 61.7333 88.7419 62.065 88.7419C62.3967 88.7419 62.7154 88.8709 62.9537 89.1016C63.192 89.3324 63.3312 89.6468 63.3419 89.9783C63.3419 96.3171 73.7716 101.675 86.113 101.675C98.4544 101.675 108.884 96.3171 108.884 89.9783C108.884 89.6398 109.019 89.3152 109.258 89.0759C109.497 88.8365 109.822 88.7021 110.16 88.7021C110.499 88.7021 110.823 88.8365 111.063 89.0759C111.302 89.3152 111.437 89.6398 111.437 89.9783C111.446 97.9707 100.317 104.229 86.1156 104.229V104.227ZM49.5151 101.878C35.3123 101.878 24.1836 95.6155 24.1836 87.6257C24.1836 79.636 35.3123 73.374 49.5151 73.374C52.7594 73.3669 55.9943 73.7221 59.1597 74.4331C59.3242 74.469 59.4799 74.5372 59.6178 74.6336C59.7558 74.73 59.8733 74.8528 59.9636 74.9949C60.0539 75.1369 60.1151 75.2955 60.1438 75.4613C60.1725 75.6272 60.168 75.7971 60.1307 75.9613C60.0934 76.1254 60.0239 76.2805 59.9263 76.4177C59.8288 76.5548 59.705 76.6713 59.5622 76.7604C59.4193 76.8495 59.2603 76.9094 59.0942 76.9366C58.9281 76.9639 58.7582 76.9581 58.5944 76.9194C55.6139 76.2546 52.5688 75.9238 49.5151 75.933C37.1671 75.933 26.7374 81.2909 26.7374 87.6323C26.7374 93.9738 37.1671 99.3316 49.5151 99.3316C52.4666 99.3386 55.4102 99.0279 58.2952 98.4049C58.4604 98.365 58.6319 98.3585 58.7996 98.3857C58.9673 98.413 59.1279 98.4734 59.272 98.5636C59.416 98.6537 59.5406 98.7717 59.6385 98.9107C59.7363 99.0496 59.8054 99.2067 59.8417 99.3727C59.878 99.5387 59.8809 99.7103 59.85 99.8773C59.8191 100.044 59.7552 100.204 59.6619 100.346C59.5687 100.488 59.448 100.61 59.307 100.705C59.1659 100.799 59.0074 100.865 58.8406 100.898C55.7764 101.559 52.6498 101.888 49.5151 101.879V101.878ZM86.1156 95.4169C71.9128 95.4169 60.7881 89.1548 60.7881 81.1651C60.7881 73.1754 71.9089 66.912 86.1156 66.912C100.322 66.912 111.446 73.1754 111.446 81.1691C111.446 89.1628 100.317 95.4169 86.1156 95.4169ZM86.1156 69.4684C73.7716 69.4684 63.3445 74.8249 63.3445 81.1677C63.3445 87.5106 73.7742 92.867 86.1156 92.867C98.457 92.867 108.887 87.5092 108.887 81.1677C108.887 74.8263 98.4636 69.4684 86.1156 69.4684Z" fill="#E7E7E7"/>
    <path d="M49.5152 97.7152C37.8186 97.7152 28.6545 93.2841 28.6545 87.6271C28.6545 81.97 37.8186 77.5442 49.5152 77.5442C52.292 77.5337 55.0629 77.7998 57.787 78.3386C57.9512 78.3716 58.1073 78.4367 58.2463 78.5301C58.3853 78.6236 58.5045 78.7435 58.5971 78.8831C58.6897 79.0227 58.7539 79.1791 58.7859 79.3436C58.818 79.508 58.8173 79.6771 58.7838 79.8412C58.7538 80.0068 58.6907 80.1646 58.5981 80.3052C58.5056 80.4458 58.3857 80.5663 58.2455 80.6594C58.1053 80.7525 57.9477 80.8163 57.7823 80.847C57.6168 80.8777 57.4468 80.8747 57.2825 80.8381C54.7246 80.3328 52.1226 80.0836 49.5152 80.0941C38.7254 80.0941 31.207 84.0658 31.207 87.6257C31.207 91.1857 38.7254 95.1601 49.5152 95.1601C52.7058 95.1601 55.8527 94.7986 58.6223 94.1142C58.9471 94.0443 59.2864 94.1037 59.5681 94.2797C59.8498 94.4558 60.0519 94.7347 60.1315 95.0572C60.211 95.3798 60.1618 95.7206 59.9943 96.0075C59.8267 96.2944 59.554 96.5047 59.234 96.5938C56.0503 97.3515 52.7878 97.7279 49.5152 97.7152Z" fill="#E7E7E7"/>
    <path d="M125.073 135.123C121.844 135.122 118.62 134.891 115.424 134.432C115.089 134.383 114.788 134.204 114.585 133.933C114.383 133.662 114.296 133.321 114.344 132.987C114.365 132.819 114.419 132.658 114.504 132.512C114.588 132.366 114.702 132.239 114.837 132.138C114.972 132.037 115.126 131.965 115.289 131.925C115.453 131.885 115.623 131.879 115.79 131.906C118.864 132.348 121.967 132.569 125.073 132.568C160.571 132.568 189.447 103.687 189.447 68.1909C189.447 32.6945 160.571 3.8163 125.073 3.8163C89.5751 3.8163 60.6955 32.6945 60.6955 68.1936C60.6955 69.1839 60.7189 70.1675 60.7657 71.1446C60.7815 71.483 60.6622 71.8139 60.434 72.0644C60.2059 72.3149 59.8875 72.4646 59.549 72.4804C59.2106 72.4962 58.8797 72.3769 58.6292 72.1487C58.3786 71.9205 58.229 71.6022 58.2132 71.2637C58.1673 70.247 58.1439 69.2236 58.1431 68.1936C58.1431 31.2899 88.1665 1.26648 125.073 1.26648C161.979 1.26648 192 31.2899 192 68.1936C192 105.097 161.978 135.123 125.073 135.123ZM125.073 123.73C121.46 123.729 117.856 123.38 114.311 122.687C114.146 122.654 113.99 122.59 113.85 122.497C113.71 122.404 113.59 122.285 113.496 122.145C113.403 122.006 113.338 121.85 113.305 121.685C113.271 121.521 113.271 121.351 113.303 121.187C113.336 121.022 113.4 120.865 113.493 120.726C113.586 120.586 113.705 120.466 113.845 120.372C113.984 120.279 114.14 120.213 114.305 120.18C114.469 120.147 114.639 120.147 114.803 120.179C118.186 120.843 121.625 121.177 125.073 121.177C154.286 121.177 178.054 97.4094 178.054 68.1936C178.054 38.9778 154.286 15.2124 125.073 15.2124C96.4395 15.2124 73.176 37.6115 72.1287 66.2051C72.1023 66.9094 71.4814 67.4191 70.8048 67.435C70.6372 67.4288 70.4723 67.3897 70.3197 67.3199C70.1672 67.25 70.0299 67.1508 69.9156 67.0278C69.8014 66.9049 69.7126 66.7606 69.6541 66.6033C69.5956 66.4461 69.5687 66.2788 69.5749 66.1111C70.6817 36.138 95.0587 12.6586 125.072 12.6586C155.693 12.6586 180.605 37.5705 180.605 68.1923C180.605 98.8141 155.695 123.73 125.073 123.73Z" fill="#B9BCBC"/>
    <path d="M119.48 78.5292C119.312 78.5298 119.145 78.4972 118.99 78.4334C118.835 78.3695 118.694 78.2757 118.575 78.1571L114.703 74.2847C114.465 74.0441 114.332 73.7195 114.332 73.3812C114.332 73.0429 114.465 72.7182 114.703 72.4776L116.881 70.2998C117.122 70.0654 117.445 69.9353 117.781 69.9377C118.117 69.94 118.439 70.0745 118.677 70.3122C118.914 70.5499 119.049 70.8716 119.051 71.2077C119.054 71.5438 118.924 71.8673 118.689 72.1082L117.412 73.3818L119.48 75.4484L120.876 74.0491C121.117 73.8147 121.441 73.6846 121.777 73.6869C122.113 73.6893 122.435 73.8238 122.672 74.0615C122.91 74.2992 123.045 74.6208 123.047 74.957C123.049 75.2931 122.919 75.6166 122.685 75.8575L120.384 78.1571C120.265 78.2758 120.124 78.3697 119.969 78.4336C119.814 78.4974 119.647 78.5299 119.48 78.5292ZM129.644 77.1907C129.476 77.1905 129.31 77.1572 129.155 77.0927C129 77.0282 128.859 76.9337 128.74 76.8147L95.934 43.9489L89.9764 34.062C89.8328 33.8185 89.774 33.5343 89.8093 33.2538C89.8445 32.9734 89.9718 32.7125 90.1711 32.5121C90.3705 32.3117 90.6306 32.183 90.9109 32.1463C91.1912 32.1096 91.4757 32.1669 91.72 32.3092L101.363 38.08L134.417 71.1405C134.656 71.3804 134.79 71.705 134.79 72.0434C134.79 72.3818 134.656 72.7064 134.417 72.9463L130.546 76.8187C130.306 77.0563 129.982 77.1899 129.644 77.1907ZM94.7504 37.0765L97.9423 42.3933L129.651 74.1087L131.718 72.042L99.8064 40.0778L94.7504 37.0765ZM132.638 65.3789C132.385 65.3787 132.138 65.3036 131.928 65.1633C131.719 65.0229 131.555 64.8234 131.458 64.5901C131.362 64.3568 131.336 64.1 131.386 63.8523C131.435 63.6046 131.556 63.3771 131.735 63.1984L144.325 50.6081L147.324 45.5574L142.01 48.7348L129.658 61.1424C129.417 61.3767 129.093 61.5068 128.757 61.5045C128.421 61.5022 128.099 61.3677 127.862 61.13C127.624 60.8923 127.489 60.5706 127.487 60.2345C127.485 59.8984 127.615 59.5749 127.849 59.3339L140.45 46.7344L150.341 40.7768C150.585 40.6317 150.87 40.572 151.152 40.6072C151.434 40.6425 151.696 40.7707 151.896 40.9715C152.097 41.1723 152.225 41.4343 152.26 41.7161C152.295 41.9978 152.235 42.2832 152.09 42.527L146.32 52.169L133.537 65.0108C133.298 65.2486 132.975 65.382 132.638 65.3815V65.3789Z" fill="url(#paint0_linear)"/>
    <path d="M124.711 28.9756C124.544 28.9756 124.378 28.9425 124.223 28.8784C124.068 28.8143 123.927 28.7203 123.809 28.6018C123.69 28.4832 123.596 28.3426 123.532 28.1877C123.468 28.0329 123.435 27.8669 123.435 27.6993V18.6385C123.435 18.3001 123.57 17.9754 123.809 17.7361C124.048 17.4968 124.373 17.3623 124.711 17.3623C125.05 17.3623 125.374 17.4968 125.614 17.7361C125.853 17.9754 125.988 18.3001 125.988 18.6385V27.6993C125.987 28.0377 125.853 28.3621 125.613 28.6014C125.374 28.8406 125.05 28.9752 124.711 28.9756Z" fill="#EA7065"/>
    <path d="M124.711 119.026C124.544 119.026 124.378 118.993 124.223 118.929C124.068 118.865 123.927 118.771 123.808 118.653C123.69 118.534 123.596 118.393 123.532 118.238C123.468 118.083 123.435 117.917 123.435 117.75V108.689C123.435 108.35 123.57 108.026 123.809 107.787C124.048 107.547 124.373 107.413 124.711 107.413C125.05 107.413 125.374 107.547 125.614 107.787C125.853 108.026 125.988 108.35 125.988 108.689V117.75C125.988 118.088 125.853 118.413 125.614 118.652C125.374 118.892 125.05 119.026 124.711 119.026Z" fill="#EA7065"/>
    <path d="M102.256 30.7206C102.031 30.72 101.811 30.6608 101.617 30.5489C101.423 30.437 101.262 30.2761 101.149 30.0824L98.7459 25.9122C98.6619 25.767 98.6075 25.6066 98.5856 25.4403C98.5637 25.2741 98.5749 25.1051 98.6184 24.9431C98.662 24.7811 98.737 24.6294 98.8393 24.4965C98.9416 24.3635 99.0691 24.2521 99.2145 24.1686C99.5088 24.0031 99.8561 23.9593 100.182 24.0467C100.508 24.134 100.787 24.3455 100.959 24.6359L103.362 28.8009C103.446 28.9461 103.501 29.1065 103.523 29.2728C103.545 29.4392 103.534 29.6082 103.49 29.7703C103.447 29.9323 103.372 30.0842 103.27 30.2173C103.168 30.3504 103.04 30.462 102.895 30.5458C102.7 30.6581 102.48 30.7182 102.256 30.7206Z" fill="#EA7065"/>
    <path d="M149.407 112.385C149.183 112.385 148.963 112.326 148.768 112.214C148.574 112.102 148.412 111.941 148.299 111.747L145.896 107.582C145.727 107.289 145.681 106.94 145.769 106.613C145.857 106.285 146.071 106.006 146.365 105.837C146.66 105.672 147.007 105.628 147.333 105.716C147.66 105.804 147.938 106.016 148.11 106.307L150.514 110.471C150.683 110.764 150.729 111.113 150.641 111.44C150.553 111.767 150.339 112.046 150.045 112.216C149.851 112.326 149.631 112.385 149.407 112.385Z" fill="#EA7065"/>
    <path d="M85.8761 47.0945C85.6525 47.0932 85.4329 47.0349 85.238 46.9251L81.073 44.5222C80.7798 44.3527 80.5657 44.0738 80.4779 43.7467C80.39 43.4195 80.4355 43.0709 80.6044 42.7773C80.7768 42.4868 81.0559 42.2752 81.3821 42.1877C81.7084 42.1001 82.0559 42.1435 82.3506 42.3086L86.5143 44.7115C86.7583 44.8516 86.9492 45.0685 87.0573 45.3284C87.1653 45.5883 87.1844 45.8766 87.1116 46.1484C87.0388 46.4203 86.8782 46.6604 86.6548 46.8315C86.4313 47.0026 86.1576 47.0951 85.8761 47.0945Z" fill="#EA7065"/>
    <path d="M167.545 94.2478C167.321 94.2465 167.102 94.1881 166.907 94.0784L162.742 91.6755C162.449 91.5058 162.236 91.227 162.148 90.9001C162.061 90.5733 162.107 90.2251 162.276 89.9321C162.445 89.639 162.723 89.4249 163.05 89.3367C163.376 89.2486 163.725 89.2936 164.018 89.4619L168.182 91.8648C168.426 92.0049 168.617 92.2216 168.725 92.4814C168.833 92.7411 168.852 93.0293 168.779 93.301C168.707 93.5728 168.546 93.813 168.323 93.9842C168.1 94.1554 167.826 94.2481 167.545 94.2478Z" fill="#EA7065"/>
    <path d="M163.38 47.0945C163.099 47.0951 162.825 47.0027 162.601 46.8316C162.378 46.6604 162.217 46.4203 162.145 46.1484C162.072 45.8766 162.091 45.5883 162.199 45.3284C162.307 45.0685 162.498 44.8516 162.742 44.7115L166.907 42.3086C167.201 42.143 167.548 42.0993 167.874 42.1869C168.2 42.2745 168.479 42.4865 168.65 42.7773C168.734 42.9226 168.789 43.083 168.811 43.2494C168.833 43.4158 168.822 43.5849 168.778 43.747C168.734 43.909 168.659 44.0609 168.557 44.194C168.455 44.327 168.327 44.4385 168.182 44.5222L164.018 46.9251C163.823 47.0349 163.604 47.0932 163.38 47.0945Z" fill="#EA7065"/>
    <path d="M147.003 30.7205C146.779 30.7198 146.56 30.6615 146.365 30.5511C146.071 30.3818 145.857 30.1029 145.769 29.7757C145.681 29.4484 145.727 29.0997 145.896 28.8062L148.299 24.6412C148.472 24.3509 148.751 24.1396 149.077 24.0523C149.404 23.965 149.751 24.0086 150.045 24.1738C150.337 24.3428 150.551 24.6205 150.639 24.9462C150.726 25.272 150.682 25.6193 150.514 25.9121L148.11 30.0771C147.998 30.2719 147.837 30.4338 147.643 30.5467C147.448 30.6597 147.228 30.7196 147.003 30.7205Z" fill="#EA7065"/>
    <path d="M174.268 69.4684H165.207C164.875 69.4577 164.561 69.3185 164.33 69.0802C164.099 68.8419 163.97 68.5232 163.97 68.1915C163.97 67.8598 164.099 67.5411 164.33 67.3028C164.561 67.0645 164.875 66.9253 165.207 66.9146H174.268C174.439 66.9091 174.609 66.938 174.769 66.9997C174.929 67.0614 175.074 67.1546 175.198 67.2737C175.321 67.3928 175.418 67.5355 175.485 67.6931C175.552 67.8508 175.586 68.0203 175.586 68.1915C175.586 68.3627 175.552 68.5322 175.485 68.6899C175.418 68.8476 175.321 68.9902 175.198 69.1093C175.074 69.2284 174.929 69.3216 174.769 69.3833C174.609 69.445 174.439 69.4739 174.268 69.4684Z" fill="#EA7065"/>
    <path d="M28.5698 77.1907C28.3855 77.1903 28.2035 77.1502 28.036 77.0733C27.8686 76.9963 27.7197 76.8841 27.5994 76.7445L0.309855 44.8173C0.0888209 44.5607 -0.0213789 44.2268 0.00344087 43.889C0.0282607 43.5512 0.186073 43.2371 0.442245 43.0155L34.9537 13.5203C35.2119 13.3025 35.5455 13.195 35.8824 13.221C36.2193 13.247 36.5324 13.4045 36.7542 13.6594L61.1841 42.2344C61.2959 42.3614 61.3814 42.5095 61.4356 42.6698C61.4898 42.8302 61.5115 42.9997 61.4996 43.1686C61.4877 43.3374 61.4424 43.5022 61.3662 43.6534C61.2901 43.8045 61.1846 43.9391 61.056 44.0492C60.9275 44.1592 60.7783 44.2427 60.6172 44.2946C60.4561 44.3465 60.2863 44.3659 60.1176 44.3517C59.9489 44.3374 59.7848 44.2898 59.6347 44.2115C59.4846 44.1333 59.3515 44.026 59.2433 43.8959L35.6447 16.2886L3.0768 44.1263L29.5442 75.083C29.7034 75.2684 29.806 75.4956 29.8399 75.7376C29.8737 75.9796 29.8374 76.2262 29.7352 76.4482C29.633 76.6701 29.4692 76.8581 29.2634 76.9897C29.0575 77.1213 28.8181 77.1911 28.5738 77.1907H28.5698Z" fill="#E7E7E7"/>
    <path d="M33.7329 74.7244C33.5486 74.724 33.3665 74.684 33.1991 74.607C33.0316 74.53 32.8827 74.4179 32.7625 74.2782L11.1313 48.9745C10.9116 48.717 10.803 48.3828 10.8293 48.0453C10.8556 47.7078 11.0147 47.3945 11.2716 47.174C11.967 46.5775 12.3977 45.7298 12.4694 44.8164C12.5411 43.903 12.248 42.9985 11.6542 42.3007C11.5447 42.1741 11.4613 42.027 11.4087 41.8681C11.356 41.7091 11.3353 41.5414 11.3476 41.3744C11.3599 41.2074 11.405 41.0445 11.4803 40.8949C11.5556 40.7454 11.6597 40.6122 11.7866 40.5029L30.7051 24.3354C30.8328 24.2264 30.9808 24.1436 31.1405 24.0918C31.3002 24.04 31.4686 24.0202 31.636 24.0336C31.8034 24.047 31.9665 24.0933 32.1159 24.1699C32.2654 24.2464 32.3983 24.3517 32.507 24.4797C33.1026 25.1761 33.9504 25.6074 34.864 25.6789C35.7776 25.7504 36.6822 25.4562 37.3789 24.861C37.6371 24.6434 37.9706 24.5361 38.3073 24.5624C38.6439 24.5887 38.9567 24.7463 39.1781 25.0014L59.1928 48.4185C59.4076 48.6766 59.5121 49.0088 59.4839 49.3434C59.4556 49.6779 59.2967 49.9879 59.0417 50.2063C58.7866 50.4246 58.4559 50.5338 58.1209 50.5101C57.786 50.4865 57.4738 50.332 57.252 50.08L37.9773 27.5274C36.9618 28.0707 35.8119 28.3114 34.6638 28.2211C33.5156 28.1308 32.4175 27.7131 31.4995 27.0176L14.3192 41.7024C14.8626 42.7176 15.1038 43.8672 15.0142 45.0153C14.9245 46.1633 14.5079 47.2616 13.8135 48.1802L34.7033 72.6167C34.8625 72.8021 34.9651 73.0293 34.999 73.2713C35.0328 73.5133 34.9965 73.7599 34.8943 73.9819C34.7921 74.2039 34.6283 74.3918 34.4225 74.5234C34.2166 74.655 33.9772 74.7248 33.7329 74.7244Z" fill="#E7E7E7"/>
    <path d="M41.3084 71.347C37.9113 71.347 34.9537 70.0708 32.9559 67.7275C28.7194 62.7721 30.1969 54.5229 36.2524 49.3438C42.3119 44.166 50.6829 43.9926 54.9194 48.9466C59.1559 53.9007 57.6784 62.1552 51.6189 67.3303C48.7249 69.806 45.2139 71.2292 41.7413 71.3417C41.601 71.343 41.454 71.347 41.3084 71.347ZM37.9153 51.2846C32.9255 55.5489 31.5738 62.1803 34.8968 66.0726C36.4722 67.9141 38.9148 68.8647 41.6672 68.7879C44.5652 68.6952 47.5135 67.4879 49.9733 65.3881C54.9591 61.1265 56.3122 54.4964 52.9879 50.6028C49.6635 46.7092 42.8997 47.0204 37.9113 51.2846H37.9153Z" fill="#E7E7E7"/>
    <path d="M45.8121 21.0018C45.5206 21.0017 45.2379 20.9018 45.011 20.7188C44.7841 20.5357 44.6267 20.2805 44.565 19.9956L42.6507 11.1347C42.6151 10.971 42.6121 10.8019 42.642 10.6371C42.6718 10.4722 42.7339 10.3149 42.8247 10.1741C42.9154 10.0333 43.0331 9.91174 43.1709 9.81647C43.3087 9.7212 43.4639 9.65404 43.6277 9.61886L87.9995 0.0298568C88.1633 -0.00629357 88.3326 -0.00965067 88.4976 0.0199744C88.6626 0.0495995 88.8202 0.111623 88.9611 0.202463C89.102 0.293303 89.2236 0.411156 89.3187 0.549227C89.4139 0.687298 89.4807 0.842849 89.5154 1.0069L90.8724 7.2888C90.9077 7.45249 90.9104 7.62152 90.8804 7.78625C90.8503 7.95098 90.7882 8.10819 90.6974 8.24889C90.6066 8.38959 90.489 8.51103 90.3512 8.60628C90.2135 8.70152 90.0584 8.76871 89.8947 8.80401C89.731 8.8393 89.562 8.842 89.3973 8.81197C89.2325 8.78193 89.0753 8.71975 88.9346 8.62896C88.7939 8.53817 88.6725 8.42056 88.5772 8.28284C88.482 8.14512 88.4148 7.98999 88.3795 7.8263L87.2926 2.79549L45.4137 11.8417L47.0579 19.4568C47.098 19.6428 47.096 19.8354 47.052 20.0205C47.008 20.2056 46.9232 20.3785 46.8038 20.5266C46.6844 20.6747 46.5334 20.7943 46.3618 20.8765C46.1902 20.9587 46.0024 21.0015 45.8121 21.0018Z" fill="#E7E7E7"/>
    <path d="M53.4036 29.9659C53.1121 29.9656 52.8295 29.8656 52.6027 29.6826C52.3758 29.4996 52.2184 29.2445 52.1565 28.9597L50.2064 19.9294C50.1702 19.7656 50.1669 19.5964 50.1965 19.4313C50.2261 19.2663 50.2881 19.1088 50.379 18.9678C50.4698 18.8269 50.5877 18.7053 50.7257 18.6102C50.8638 18.5151 51.0194 18.4482 51.1834 18.4135C51.6275 18.3193 52.0485 18.1381 52.4223 17.8805C52.7961 17.6229 53.1152 17.2939 53.3613 16.9124C53.6074 16.531 53.7756 16.1046 53.8563 15.6579C53.9369 15.2111 53.9284 14.7529 53.8312 14.3094C53.7955 14.1457 53.7925 13.9765 53.8222 13.8116C53.852 13.6467 53.914 13.4892 54.0046 13.3483C54.0947 13.2068 54.2123 13.0848 54.3503 12.9896C54.4883 12.8943 54.644 12.8276 54.8082 12.7936L79.1283 7.53768C79.459 7.46621 79.8046 7.52856 80.0894 7.71111C80.2307 7.80169 80.3526 7.91953 80.4478 8.05773C80.5431 8.19594 80.6098 8.35174 80.6442 8.51604C80.7865 9.16419 81.1115 9.758 81.5808 10.2272C82.05 10.6965 82.6438 11.0215 83.292 11.1638C83.615 11.2433 83.8942 11.4458 84.0702 11.7281C84.2461 12.0104 84.3049 12.3503 84.234 12.6753C84.163 13.0003 83.968 13.2848 83.6904 13.4681C83.4128 13.6514 83.0746 13.7191 82.7478 13.6567C81.8339 13.4571 80.9792 13.047 80.2516 12.4592C79.524 11.8713 78.9435 11.1218 78.5564 10.2702L56.4671 15.0362C56.4668 16.1888 56.1347 17.3169 55.5105 18.2858C54.8862 19.2547 53.9962 20.0233 52.9468 20.5L54.6507 28.4275C54.6863 28.5912 54.6893 28.7603 54.6594 28.9252C54.6295 29.09 54.5675 29.2473 54.4767 29.3881C54.3859 29.529 54.2683 29.6505 54.1305 29.7458C53.9927 29.841 53.8375 29.9082 53.6737 29.9434C53.5847 29.9606 53.4942 29.9681 53.4036 29.9659Z" fill="#E7E7E7"/>
    <path d="M42.7236 64.1609C41.4672 64.1609 40.1354 63.5625 39.1676 62.4332C38.4153 61.5743 37.9872 60.4793 37.9576 59.3379C37.9443 58.2086 38.3733 57.2197 39.161 56.5392C39.2112 56.4897 39.271 56.451 39.3368 56.4256C39.4026 56.4003 39.4729 56.3888 39.5433 56.3918C39.6137 56.3949 39.6828 56.4124 39.7461 56.4434C39.8095 56.4744 39.8657 56.5181 39.9114 56.5718C39.9571 56.6255 39.9912 56.6881 40.0115 56.7555C40.0319 56.823 40.0382 56.894 40.0299 56.964C40.0216 57.034 39.9989 57.1016 39.9633 57.1624C39.9277 57.2233 39.8799 57.2761 39.823 57.3177C39.2682 57.789 38.9651 58.5092 38.9757 59.3287C39.0052 60.2297 39.3474 61.0923 39.9434 61.7686C41.1852 63.2249 43.1473 63.5824 44.3202 62.5788C44.7386 62.2201 46.0188 61.1226 44.1468 58.0683C42.8083 55.8852 42.7554 53.9444 44.0012 52.8773C44.5981 52.3981 45.3567 52.1672 46.1194 52.2326C47.2262 52.3186 48.333 52.9197 49.1644 53.8848C49.8438 54.6562 50.2533 55.628 50.3307 56.6531C50.3877 57.6738 50.0421 58.5568 49.3577 59.142C49.2533 59.2163 49.1247 59.2488 48.9975 59.2331C48.8703 59.2173 48.7536 59.1544 48.6705 59.0568C48.5874 58.9593 48.5438 58.8341 48.5485 58.706C48.5532 58.5778 48.6057 58.4561 48.6957 58.3649C49.1353 57.9915 49.3577 57.4037 49.314 56.7087C49.2495 55.9069 48.924 55.1484 48.3873 54.5494C47.7491 53.8014 46.8754 53.3129 46.0479 53.2493C45.4826 53.2123 45.0245 53.346 44.6684 53.6544C43.4319 54.7136 44.6261 56.8927 45.0206 57.5374C46.5629 60.0528 46.5537 62.0175 44.9875 63.3626C44.3523 63.8903 43.5493 64.1734 42.7236 64.1609Z" fill="#FCFFDE"/>
    <path d="M48.7764 54.7282C48.7026 54.7271 48.6299 54.7107 48.5629 54.6799C48.4959 54.6491 48.436 54.6047 48.3872 54.5495C48.2995 54.446 48.2563 54.3121 48.267 54.177C48.2776 54.0418 48.3413 53.9163 48.4441 53.8279L49.7468 52.7145C49.7973 52.6671 49.8568 52.6305 49.9218 52.6068C49.9868 52.5831 50.056 52.5729 50.1251 52.5767C50.1942 52.5806 50.2618 52.5984 50.3238 52.6291C50.3858 52.6599 50.4409 52.7029 50.4858 52.7556C50.5306 52.8083 50.5644 52.8695 50.5848 52.9356C50.6053 53.0017 50.6122 53.0713 50.605 53.1401C50.5978 53.209 50.5767 53.2756 50.543 53.336C50.5092 53.3965 50.4636 53.4494 50.4088 53.4917L49.106 54.6051C49.0144 54.6841 48.8975 54.7278 48.7764 54.7282Z" fill="#FCFFDE"/>
    <path d="M38.102 63.8551C37.9976 63.8546 37.8959 63.8223 37.8105 63.7624C37.725 63.7026 37.6599 63.6181 37.6237 63.5202C37.5876 63.4223 37.5822 63.3157 37.6083 63.2147C37.6344 63.1137 37.6907 63.023 37.7697 62.9549L39.0698 61.8441C39.1742 61.7679 39.3036 61.7341 39.4319 61.7493C39.5603 61.7645 39.6782 61.8277 39.7619 61.9262C39.8457 62.0247 39.8891 62.1512 39.8835 62.2803C39.8779 62.4095 39.8237 62.5317 39.7317 62.6226L38.4316 63.732C38.34 63.8111 38.223 63.8547 38.102 63.8551Z" fill="#FCFFDE"/>
    <path d="M124.711 28.2117C124.575 28.2117 124.445 28.1577 124.349 28.0616C124.253 27.9655 124.199 27.8352 124.199 27.6993V18.6386C124.199 18.5027 124.253 18.3724 124.349 18.2763C124.445 18.1802 124.575 18.1262 124.711 18.1262C124.847 18.1262 124.978 18.1802 125.074 18.2763C125.17 18.3724 125.224 18.5027 125.224 18.6386V27.6993C125.224 27.8352 125.17 27.9655 125.074 28.0616C124.978 28.1577 124.847 28.2117 124.711 28.2117Z" fill="#EFA8A2"/>
    <path d="M124.711 118.262C124.575 118.262 124.445 118.208 124.349 118.112C124.253 118.016 124.199 117.886 124.199 117.75V108.689C124.199 108.553 124.253 108.423 124.349 108.327C124.445 108.231 124.575 108.177 124.711 108.177C124.847 108.177 124.978 108.231 125.074 108.327C125.17 108.423 125.224 108.553 125.224 108.689V117.75C125.224 117.886 125.17 118.016 125.074 118.112C124.978 118.208 124.847 118.262 124.711 118.262Z" fill="#EFA8A2"/>
    <path d="M102.256 29.9567C102.166 29.9567 102.078 29.933 102.001 29.8882C101.923 29.8433 101.859 29.7788 101.815 29.7012L99.4105 25.5362C99.3435 25.4187 99.3255 25.2796 99.3605 25.149C99.3954 25.0184 99.4805 24.9068 99.5971 24.8385C99.655 24.8044 99.7191 24.7822 99.7856 24.773C99.8521 24.7639 99.9198 24.7681 99.9847 24.7853C100.05 24.8026 100.11 24.8325 100.164 24.8735C100.217 24.9144 100.262 24.9655 100.295 25.0239L102.698 29.1888C102.765 29.3061 102.783 29.4452 102.749 29.5759C102.714 29.7066 102.629 29.8182 102.512 29.8865C102.434 29.9319 102.346 29.9561 102.256 29.9567Z" fill="#EFA8A2"/>
    <path d="M149.408 111.621C149.318 111.621 149.229 111.598 149.152 111.553C149.074 111.507 149.01 111.443 148.965 111.365L146.562 107.2C146.495 107.082 146.477 106.943 146.511 106.812C146.546 106.681 146.631 106.569 146.748 106.501C146.806 106.466 146.87 106.444 146.936 106.435C147.003 106.426 147.071 106.43 147.136 106.447C147.201 106.465 147.262 106.495 147.315 106.536C147.368 106.577 147.412 106.629 147.446 106.687L149.848 110.852C149.893 110.93 149.917 111.018 149.917 111.107C149.917 111.197 149.893 111.285 149.849 111.363C149.804 111.441 149.74 111.505 149.662 111.55C149.585 111.595 149.497 111.62 149.408 111.62V111.621Z" fill="#EFA8A2"/>
    <path d="M85.8763 46.3319C85.7865 46.3318 85.6984 46.3081 85.6208 46.2631L81.4558 43.8602C81.3385 43.7923 81.253 43.6805 81.2181 43.5495C81.1833 43.4186 81.2018 43.2791 81.2698 43.1618C81.3377 43.0446 81.4495 42.9591 81.5804 42.9242C81.7114 42.8893 81.8509 42.9079 81.9681 42.9758L86.1318 45.3734C86.229 45.4297 86.305 45.5166 86.3479 45.6204C86.3908 45.7243 86.3983 45.8394 86.3692 45.9479C86.3401 46.0565 86.2761 46.1524 86.187 46.2208C86.0979 46.2893 85.9887 46.3265 85.8763 46.3266V46.3319Z" fill="#EFA8A2"/>
    <path d="M167.545 93.4827C167.455 93.4827 167.366 93.459 167.288 93.4138L163.123 91.0109C163.006 90.943 162.92 90.8313 162.885 90.7003C162.85 90.5693 162.869 90.4299 162.937 90.3126C163.005 90.1953 163.117 90.1098 163.248 90.075C163.379 90.0401 163.518 90.0586 163.635 90.1266L167.8 92.5295C167.898 92.5858 167.974 92.6726 168.016 92.7765C168.059 92.8803 168.067 92.9954 168.038 93.104C168.009 93.2125 167.945 93.3084 167.856 93.3769C167.766 93.4453 167.657 93.4825 167.545 93.4827Z" fill="#EFA8A2"/>
    <path d="M163.38 46.3319C163.267 46.332 163.158 46.2951 163.069 46.2267C162.979 46.1584 162.915 46.0624 162.886 45.9538C162.856 45.8452 162.864 45.73 162.907 45.626C162.95 45.522 163.026 45.4351 163.123 45.3787L167.288 42.9758C167.346 42.9415 167.41 42.9191 167.477 42.9098C167.543 42.9006 167.611 42.9047 167.676 42.922C167.741 42.9392 167.802 42.9693 167.856 43.0103C167.909 43.0514 167.954 43.1027 167.987 43.1612C168.054 43.2788 168.072 43.4181 168.037 43.549C168.002 43.6798 167.917 43.7916 167.8 43.8602L163.635 46.2631C163.558 46.308 163.47 46.3318 163.38 46.3319Z" fill="#EFA8A2"/>
    <path d="M147.003 29.9567C146.914 29.9561 146.826 29.932 146.748 29.8869C146.671 29.8418 146.607 29.7771 146.562 29.6994C146.518 29.6217 146.494 29.5337 146.494 29.4441C146.494 29.3545 146.518 29.2665 146.562 29.1888L148.965 25.0238C149.035 24.9081 149.146 24.8241 149.276 24.7894C149.407 24.7548 149.545 24.7724 149.663 24.8385C149.78 24.9068 149.865 25.0184 149.899 25.1491C149.934 25.2798 149.916 25.4189 149.848 25.5362L147.445 29.7011C147.401 29.7789 147.336 29.8434 147.259 29.8883C147.181 29.9331 147.093 29.9567 147.003 29.9567Z" fill="#EFA8A2"/>
    <path d="M174.268 68.7046H165.207C165.076 68.6979 164.952 68.6411 164.861 68.5459C164.771 68.4506 164.72 68.3243 164.72 68.1929C164.72 68.0615 164.771 67.9352 164.861 67.8399C164.952 67.7447 165.076 67.6879 165.207 67.6812H174.268C174.337 67.6777 174.406 67.6883 174.471 67.7124C174.537 67.7365 174.596 67.7737 174.647 67.8215C174.697 67.8694 174.737 67.927 174.764 67.9908C174.792 68.0547 174.806 68.1234 174.806 68.1929C174.806 68.2624 174.792 68.3311 174.764 68.395C174.737 68.4588 174.697 68.5164 174.647 68.5643C174.596 68.6121 174.537 68.6492 174.471 68.6734C174.406 68.6975 174.337 68.7081 174.268 68.7046Z" fill="#EFA8A2"/>
    <path d="M28.57 76.4255C28.4961 76.425 28.4233 76.4088 28.3562 76.378C28.2891 76.3472 28.2293 76.3024 28.1807 76.2468L0.89119 44.3144C0.804413 44.2107 0.761648 44.0771 0.77204 43.9423C0.776771 43.8753 0.794772 43.8099 0.824999 43.7499C0.855227 43.6899 0.897076 43.6365 0.948117 43.5928L35.4542 14.1016C35.5593 14.0178 35.6923 13.977 35.8262 13.9876C35.9602 13.9982 36.0852 14.0593 36.1758 14.1586L60.6083 42.7336C60.6959 42.8368 60.7391 42.9705 60.7284 43.1055C60.7177 43.2404 60.6541 43.3656 60.5514 43.4538C60.4465 43.5378 60.3136 43.5788 60.1797 43.5685C60.0457 43.5582 59.9207 43.4973 59.8299 43.3982L35.7349 15.2124L2.00194 44.0496L28.9671 75.5809C29.0548 75.6843 29.098 75.8182 29.0873 75.9534C29.0767 76.0886 29.013 76.214 28.9102 76.3024C28.8151 76.3827 28.6944 76.4264 28.57 76.4255Z" fill="#FCFFDE"/>
    <path d="M33.733 73.959C33.6593 73.9585 33.5866 73.9424 33.5197 73.9115C33.4528 73.8807 33.3933 73.836 33.3451 73.7803L11.7139 48.4766C11.6277 48.3725 11.5846 48.2394 11.5934 48.1046C11.6044 47.97 11.6676 47.845 11.7695 47.7564C12.6192 47.0285 13.1454 45.9933 13.2328 44.878C13.3201 43.7626 12.9615 42.6581 12.2355 41.8068C12.1478 41.7034 12.1046 41.5695 12.1153 41.4343C12.126 41.2991 12.1896 41.1737 12.2924 41.0853L31.2043 24.9178C31.3115 24.8375 31.4424 24.7951 31.5764 24.7973C31.7117 24.8079 31.8374 24.8717 31.9259 24.9747C32.653 25.8254 33.688 26.3526 34.8037 26.4405C35.9193 26.5284 37.0241 26.1697 37.8755 25.4434C37.9785 25.3557 38.1121 25.3123 38.247 25.3227C38.382 25.3331 38.5073 25.3965 38.5957 25.499L58.6117 48.9148C58.6591 48.9652 58.6958 49.0248 58.7194 49.0898C58.7431 49.1548 58.7534 49.224 58.7495 49.2931C58.7457 49.3622 58.7279 49.4298 58.6971 49.4918C58.6664 49.5538 58.6233 49.6089 58.5707 49.6538C58.518 49.6986 58.4567 49.7323 58.3906 49.7528C58.3245 49.7733 58.2549 49.7802 58.1861 49.773C58.1173 49.7658 58.0506 49.7447 57.9902 49.7109C57.9298 49.6772 57.8768 49.6316 57.8346 49.5768L38.1336 26.533C37.1376 27.2253 35.9327 27.5516 34.7235 27.4565C33.5142 27.3615 32.3751 26.8508 31.4996 26.0113L13.3251 41.546C14.0179 42.5415 14.3449 43.7462 14.2506 44.9554C14.1562 46.1647 13.6463 47.304 12.8074 48.18L34.1222 73.1157C34.2099 73.2191 34.2531 73.353 34.2424 73.4882C34.2317 73.6234 34.1681 73.7488 34.0653 73.8372C33.9718 73.9147 33.8544 73.9577 33.733 73.959Z" fill="#FCFFDE"/>
    <path d="M41.3084 70.5831C38.131 70.5831 35.3919 69.3996 33.5371 67.2323C29.576 62.5987 31.0217 54.8314 36.7515 49.925C42.4813 45.0186 50.3784 44.8068 54.3475 49.4431C58.3086 54.0768 56.8629 61.8441 51.133 66.7478C48.3674 69.1096 45.0272 70.4693 41.7241 70.5765C41.5837 70.5792 41.4474 70.5831 41.3084 70.5831ZM46.5629 47.117C43.5179 47.117 40.2082 48.3231 37.4161 50.7035C32.1086 55.2405 30.7185 62.3538 34.3155 66.5677C36.0432 68.588 38.6844 69.7014 41.691 69.5518C44.7611 69.4552 47.8789 68.1829 50.4684 65.9693C55.7773 61.435 57.1687 54.319 53.569 50.1077C51.8612 48.1073 49.3246 47.117 46.5629 47.117Z" fill="#FCFFDE"/>
    <path d="M45.8123 20.2379C45.6954 20.2375 45.5821 20.197 45.4913 20.1233C45.4005 20.0497 45.3376 19.9471 45.3132 19.8328L43.3975 10.9706C43.3838 10.9049 43.3831 10.8371 43.3957 10.7711C43.4082 10.7051 43.4337 10.6423 43.4706 10.5862C43.5075 10.5301 43.5551 10.4818 43.6108 10.4442C43.6664 10.4066 43.7289 10.3803 43.7947 10.3669L88.1678 0.777891C88.2336 0.763961 88.3016 0.763198 88.3677 0.775653C88.4338 0.788107 88.4968 0.81353 88.553 0.850453C88.6093 0.887376 88.6577 0.935065 88.6954 0.990778C88.7331 1.04649 88.7594 1.10913 88.7728 1.17506L90.1312 7.45167C90.1467 7.51774 90.1489 7.58626 90.1377 7.6532C90.1264 7.72014 90.1019 7.78417 90.0656 7.84151C90.0292 7.89884 89.9818 7.94834 89.926 7.9871C89.8703 8.02586 89.8074 8.05308 89.741 8.06719C89.6746 8.0813 89.606 8.08201 89.5394 8.06926C89.4727 8.05652 89.4092 8.03058 89.3527 7.99297C89.2962 7.95537 89.2478 7.90685 89.2102 7.85027C89.1727 7.79369 89.1469 7.73019 89.1343 7.66349L87.8805 1.88467L44.5056 11.2566L46.3101 19.6196C46.3242 19.6855 46.3251 19.7534 46.3127 19.8196C46.3003 19.8858 46.2749 19.9489 46.238 20.0052C46.201 20.0615 46.1533 20.1099 46.0975 20.1475C46.0417 20.1852 45.9789 20.2114 45.9129 20.2246C45.8798 20.2321 45.8462 20.2366 45.8123 20.2379Z" fill="#FCFFDE"/>
    <path d="M53.4036 29.2021C53.2866 29.2019 53.1732 29.1616 53.0824 29.0878C52.9916 29.0141 52.9288 28.9114 52.9045 28.797L50.9544 19.7653C50.9399 19.7004 50.9385 19.6332 50.9503 19.5677C50.9621 19.5022 50.9869 19.4398 51.0232 19.384C51.0588 19.3276 51.1052 19.2787 51.1597 19.2403C51.2143 19.2019 51.2759 19.1747 51.341 19.1603C51.883 19.0441 52.3968 18.822 52.8528 18.5067C53.3088 18.1915 53.698 17.7893 53.9981 17.3232C54.2983 16.8571 54.5034 16.3363 54.6018 15.7908C54.7001 15.2452 54.6898 14.6856 54.5713 14.144C54.5572 14.078 54.5562 14.0099 54.5686 13.9435C54.5809 13.8772 54.6063 13.8139 54.6432 13.7574C54.6802 13.7009 54.7279 13.6523 54.7837 13.6144C54.8396 13.5764 54.9024 13.5499 54.9685 13.5364L79.2885 8.28181C79.4202 8.25543 79.5569 8.28003 79.6711 8.35065C79.7278 8.38697 79.7767 8.43426 79.8149 8.48973C79.8531 8.5452 79.8798 8.60774 79.8935 8.67368C80.066 9.4659 80.4621 10.192 81.035 10.7658C81.6078 11.3395 82.3332 11.7369 83.1252 11.9106C83.1906 11.925 83.2524 11.9522 83.3073 11.9906C83.3622 12.0289 83.409 12.0777 83.445 12.1341C83.481 12.1905 83.5056 12.2535 83.5173 12.3194C83.5289 12.3853 83.5275 12.4529 83.5131 12.5183C83.4798 12.648 83.3985 12.7602 83.2858 12.8324C83.1731 12.9047 83.0371 12.9315 82.9054 12.9075C82.007 12.7105 81.1761 12.2811 80.4959 11.6621C79.8156 11.0432 79.3098 10.2565 79.029 9.38065L55.6609 14.4313C55.8019 15.6377 55.5193 16.8557 54.8614 17.8767C54.2036 18.8978 53.2114 19.6585 52.0546 20.0288L53.908 28.5838C53.9218 28.6496 53.9224 28.7175 53.9099 28.7836C53.8973 28.8496 53.8719 28.9125 53.835 28.9688C53.7981 29.025 53.7505 29.0733 53.6949 29.1111C53.6392 29.1489 53.5767 29.1753 53.5109 29.1888C53.4756 29.1967 53.4397 29.2012 53.4036 29.2021Z" fill="#FCFFDE"/>
    <path d="M82.7252 85.4427C81.3589 85.4427 76.8524 85.3209 76.1441 83.7587C76.0342 83.5191 75.9256 83.0372 76.3943 82.505C76.438 82.4542 76.4913 82.4126 76.5513 82.3827C76.6112 82.3529 76.6765 82.3352 76.7433 82.3309C76.8102 82.3266 76.8772 82.3357 76.9405 82.3576C77.0037 82.3795 77.062 82.4139 77.1118 82.4586C77.162 82.5027 77.203 82.5562 77.2325 82.6161C77.262 82.676 77.2793 82.7412 77.2836 82.8078C77.288 82.8744 77.2791 82.9413 77.2576 83.0045C77.236 83.0677 77.2023 83.126 77.1582 83.1762C77.1582 83.1762 77.0549 83.2967 77.0748 83.3364C77.2283 83.6753 78.8634 84.4193 82.7252 84.4193C87.2489 84.4193 91.1544 83.429 91.966 82.505C92.02 82.4513 92.0619 82.3867 92.0891 82.3156C92.0746 82.2958 91.7198 81.5544 86.3685 81.2684C80.7777 80.9692 80.3925 80.0518 80.2495 79.7062C80.1661 79.5103 80.0866 79.1144 80.4693 78.6789C81.5628 77.4357 85.9158 76.7645 89.4599 76.7645C91.1015 76.7645 94.9871 76.9115 95.5948 78.2671C95.7577 78.6233 95.6809 79.0218 95.3856 79.358C95.2956 79.4593 95.169 79.5207 95.0336 79.5287C94.8983 79.5366 94.7654 79.4905 94.6641 79.4004C94.5628 79.3104 94.5014 79.1837 94.4935 79.0484C94.4856 78.9131 94.5317 78.7802 94.6217 78.6789C94.6383 78.663 94.6518 78.6441 94.6615 78.6233C94.5052 78.3744 92.808 77.7892 89.4599 77.7892C85.4246 77.7892 81.8845 78.6127 81.2331 79.3541C81.2331 79.3541 81.8541 80.0054 86.4215 80.2517C91.7423 80.5337 92.7458 81.2618 93.0291 81.933C93.1482 82.2124 93.1919 82.6572 92.7325 83.1801C91.447 84.6497 86.6148 85.4427 82.7252 85.4427Z" fill="#FCFFDE"/>
    <path d="M89.4601 77.7891C89.3621 77.7884 89.2664 77.7596 89.1843 77.7061C89.1022 77.6526 89.0372 77.5767 88.9969 77.4874C88.9567 77.3981 88.9429 77.2991 88.9571 77.2022C88.9714 77.1052 89.0132 77.0144 89.0775 76.9405L90.028 75.8602C90.117 75.7589 90.2426 75.6971 90.3772 75.6884C90.5118 75.6797 90.6443 75.7249 90.7456 75.8139C90.8469 75.9029 90.9087 76.0285 90.9174 76.1631C90.926 76.2976 90.8809 76.4301 90.7919 76.5314L89.8414 77.6117C89.7946 77.6673 89.7362 77.712 89.6704 77.7427C89.6045 77.7733 89.5327 77.7892 89.4601 77.7891Z" fill="#FCFFDE"/>
    <path d="M81.6582 86.6527C81.5604 86.6517 81.465 86.6228 81.3832 86.5694C81.3013 86.516 81.2365 86.4403 81.1963 86.3512C81.1561 86.2621 81.1422 86.1634 81.1562 86.0667C81.1702 85.97 81.2117 85.8793 81.2755 85.8054L82.2235 84.7251C82.2675 84.6749 82.3211 84.6339 82.381 84.6045C82.4409 84.575 82.506 84.5576 82.5726 84.5533C82.6393 84.549 82.7061 84.5579 82.7693 84.5794C82.8325 84.6009 82.8909 84.6347 82.941 84.6787C82.9912 84.7228 83.0322 84.7763 83.0616 84.8362C83.0911 84.8962 83.1085 84.9613 83.1128 85.0279C83.1171 85.0945 83.1082 85.1614 83.0867 85.2246C83.0652 85.2878 83.0314 85.3461 82.9873 85.3963L82.0408 86.4766C81.9936 86.5319 81.9349 86.5763 81.8688 86.6067C81.8028 86.6371 81.7309 86.6528 81.6582 86.6527Z" fill="#FCFFDE"/>
    <path d="M86.1158 94.6569C72.5723 94.6569 61.5535 88.6041 61.5535 81.169C61.5535 73.734 72.5723 67.6812 86.1158 67.6812C99.6593 67.6812 110.682 73.734 110.682 81.169C110.682 88.6041 99.6632 94.6569 86.1158 94.6569ZM86.1158 68.7085C73.1416 68.7085 62.5768 74.2993 62.5768 81.173C62.5768 88.0467 73.1363 93.6375 86.1158 93.6375C99.0953 93.6375 109.659 88.0467 109.659 81.173C109.659 74.2993 99.0979 68.7045 86.1158 68.7045V68.7085Z" fill="#FCFFDE"/>
    <path d="M86.1158 103.465C72.5723 103.465 61.5535 97.4146 61.5535 89.9796C61.5601 89.8484 61.617 89.7248 61.7122 89.6343C61.8074 89.5438 61.9338 89.4933 62.0652 89.4933C62.1965 89.4933 62.3229 89.5438 62.4181 89.6343C62.5133 89.7248 62.5702 89.8484 62.5768 89.9796C62.5768 96.8506 73.1363 102.441 86.1158 102.441C99.0953 102.441 109.659 96.8506 109.659 89.9796C109.665 89.8484 109.722 89.7248 109.817 89.6343C109.913 89.5438 110.039 89.4933 110.17 89.4933C110.302 89.4933 110.428 89.5438 110.523 89.6343C110.619 89.7248 110.675 89.8484 110.682 89.9796C110.682 97.4146 99.6632 103.465 86.1158 103.465Z" fill="#FCFFDE"/>
    <path d="M86.116 114.26C72.5725 114.26 61.5536 108.207 61.5536 100.772C61.5501 100.703 61.5607 100.633 61.5848 100.568C61.609 100.503 61.6461 100.443 61.6939 100.393C61.7418 100.343 61.7994 100.303 61.8633 100.275C61.9271 100.248 61.9959 100.234 62.0653 100.234C62.1348 100.234 62.2036 100.248 62.2674 100.275C62.3312 100.303 62.3888 100.343 62.4367 100.393C62.4846 100.443 62.5217 100.503 62.5458 100.568C62.5699 100.633 62.5805 100.703 62.577 100.772C62.577 107.646 73.1364 113.237 86.116 113.237C99.0955 113.237 109.659 107.646 109.659 100.772C109.655 100.703 109.666 100.633 109.69 100.568C109.714 100.503 109.751 100.443 109.799 100.393C109.847 100.343 109.905 100.303 109.968 100.275C110.032 100.248 110.101 100.234 110.171 100.234C110.24 100.234 110.309 100.248 110.373 100.275C110.436 100.303 110.494 100.343 110.542 100.393C110.59 100.443 110.627 100.503 110.651 100.568C110.675 100.633 110.686 100.703 110.682 100.772C110.682 108.207 99.6634 114.26 86.116 114.26Z" fill="#FCFFDE"/>
    <path d="M86.116 125.055C72.5725 125.055 61.5536 119.003 61.5536 111.568C61.5501 111.499 61.5607 111.43 61.5848 111.364C61.609 111.299 61.6461 111.24 61.6939 111.189C61.7418 111.139 61.7994 111.099 61.8633 111.072C61.9271 111.044 61.9959 111.03 62.0653 111.03C62.1348 111.03 62.2036 111.044 62.2674 111.072C62.3312 111.099 62.3888 111.139 62.4367 111.189C62.4846 111.24 62.5217 111.299 62.5458 111.364C62.5699 111.43 62.5805 111.499 62.577 111.568C62.577 118.442 73.1364 124.032 86.116 124.032C99.0955 124.032 109.659 118.442 109.659 111.568C109.655 111.499 109.666 111.43 109.69 111.364C109.714 111.299 109.751 111.24 109.799 111.189C109.847 111.139 109.905 111.099 109.968 111.072C110.032 111.044 110.101 111.03 110.171 111.03C110.24 111.03 110.309 111.044 110.373 111.072C110.436 111.099 110.494 111.139 110.542 111.189C110.59 111.24 110.627 111.299 110.651 111.364C110.675 111.43 110.686 111.499 110.682 111.568C110.682 119.003 99.6634 125.055 86.116 125.055Z" fill="#FCFFDE"/>
    <path d="M86.116 135.847C72.5725 135.847 61.5536 129.798 61.5536 122.363C61.5501 122.294 61.5607 122.225 61.5848 122.16C61.609 122.094 61.6461 122.035 61.6939 121.984C61.7418 121.934 61.7994 121.894 61.8633 121.867C61.9271 121.839 61.9959 121.825 62.0653 121.825C62.1348 121.825 62.2036 121.839 62.2674 121.867C62.3312 121.894 62.3888 121.934 62.4367 121.984C62.4846 122.035 62.5217 122.094 62.5458 122.16C62.5699 122.225 62.5805 122.294 62.577 122.363C62.577 129.233 73.1364 134.824 86.116 134.824C99.0955 134.824 109.659 129.233 109.659 122.363C109.655 122.294 109.666 122.225 109.69 122.16C109.714 122.094 109.751 122.035 109.799 121.984C109.847 121.934 109.905 121.894 109.968 121.867C110.032 121.839 110.101 121.825 110.171 121.825C110.24 121.825 110.309 121.839 110.373 121.867C110.436 121.894 110.494 121.934 110.542 121.984C110.59 122.035 110.627 122.094 110.651 122.16C110.675 122.225 110.686 122.294 110.682 122.363C110.682 129.798 99.6634 135.847 86.116 135.847Z" fill="#FCFFDE"/>
    <path d="M86.116 146.643C72.5725 146.643 61.5536 140.591 61.5536 133.156C61.5501 133.087 61.5607 133.017 61.5848 132.952C61.609 132.887 61.6461 132.827 61.6939 132.777C61.7418 132.727 61.7994 132.687 61.8633 132.659C61.9271 132.632 61.9959 132.618 62.0653 132.618C62.1348 132.618 62.2036 132.632 62.2674 132.659C62.3312 132.687 62.3888 132.727 62.4367 132.777C62.4846 132.827 62.5217 132.887 62.5458 132.952C62.5699 133.017 62.5805 133.087 62.577 133.156C62.577 140.03 73.1364 145.619 86.116 145.619C99.0955 145.619 109.659 140.03 109.659 133.156C109.655 133.087 109.666 133.017 109.69 132.952C109.714 132.887 109.751 132.827 109.799 132.777C109.847 132.727 109.905 132.687 109.968 132.659C110.032 132.632 110.101 132.618 110.171 132.618C110.24 132.618 110.309 132.632 110.373 132.659C110.436 132.687 110.494 132.727 110.542 132.777C110.59 132.827 110.627 132.887 110.651 132.952C110.675 133.017 110.686 133.087 110.682 133.156C110.682 140.591 99.6634 146.643 86.116 146.643Z" fill="#FCFFDE"/>
    <path d="M86.1157 90.4919C74.8519 90.4919 66.0242 86.3971 66.0242 81.169C66.0242 75.9409 74.8519 71.8488 86.1157 71.8488C97.3794 71.8488 106.211 75.9436 106.211 81.169C106.211 86.3944 97.3834 90.4919 86.1157 90.4919ZM86.1157 72.8721C75.7787 72.8721 67.0515 76.6717 67.0515 81.169C67.0515 85.6663 75.7893 89.4685 86.1157 89.4685C96.4421 89.4685 105.188 85.6689 105.188 81.169C105.188 76.6691 96.4553 72.8721 86.1157 72.8721Z" fill="#FCFFDE"/>
    <path d="M46.1207 91.9006C44.7544 91.9006 40.2479 91.7788 39.5396 90.2126C39.4297 89.973 39.3211 89.495 39.7898 88.9628C39.8339 88.9127 39.8874 88.8717 39.9473 88.8422C40.0072 88.8127 40.0723 88.7954 40.139 88.7911C40.2056 88.7868 40.2724 88.7956 40.3356 88.8171C40.3988 88.8387 40.4572 88.8724 40.5073 88.9165C40.5575 88.9606 40.5985 89.0141 40.628 89.074C40.6574 89.1339 40.6748 89.199 40.6791 89.2657C40.6834 89.3323 40.6746 89.3991 40.653 89.4623C40.6315 89.5255 40.5978 89.5839 40.5537 89.634C40.5537 89.634 40.4504 89.7545 40.4703 89.7943C40.6239 90.1332 42.2589 90.8772 46.1207 90.8772C50.6445 90.8772 54.5539 89.8869 55.3681 88.9628C55.4217 88.9096 55.4624 88.8448 55.4873 88.7735C55.474 88.7537 55.1179 88.0123 49.7667 87.7263C44.1759 87.4271 43.7906 86.5097 43.645 86.1641C43.5616 85.9682 43.4822 85.5723 43.8634 85.1407C44.961 83.8936 49.3153 83.2224 52.8554 83.2224C54.497 83.2224 58.3826 83.3694 58.9943 84.725C59.1571 85.0812 59.0803 85.4797 58.7838 85.812C58.7404 85.8632 58.6872 85.9052 58.6272 85.9354C58.5673 85.9656 58.5019 85.9834 58.4349 85.9877C58.3679 85.992 58.3007 85.9828 58.2374 85.9606C58.174 85.9383 58.1158 85.9036 58.0662 85.8583C58.0161 85.8142 57.9751 85.7607 57.9456 85.7008C57.9161 85.6409 57.8987 85.5757 57.8944 85.5091C57.8901 85.4425 57.899 85.3757 57.9205 85.3125C57.942 85.2492 57.9758 85.1909 58.0199 85.1407C58.0363 85.1232 58.0497 85.103 58.0596 85.0812C57.9034 84.831 56.2062 84.2471 52.8554 84.2471C48.8228 84.2471 45.284 85.0706 44.6286 85.8159C44.675 85.8583 45.423 86.4779 49.821 86.7096C55.1417 86.9916 56.1453 87.7197 56.4272 88.3909C56.5477 88.6703 56.5901 89.1164 56.132 89.638C54.8386 91.1076 50.0169 91.9006 46.1207 91.9006Z" fill="#FCFFDE"/>
    <path d="M52.8556 84.2472C52.7576 84.2464 52.6619 84.2176 52.5798 84.1641C52.4977 84.1106 52.4327 84.0347 52.3924 83.9454C52.3522 83.8561 52.3384 83.7571 52.3526 83.6602C52.3669 83.5633 52.4087 83.4725 52.473 83.3985L53.4235 82.3183C53.4677 82.2681 53.5213 82.2271 53.5813 82.1977C53.6413 82.1682 53.7065 82.1509 53.7732 82.1467C53.8399 82.1424 53.9068 82.1514 53.97 82.173C54.0332 82.1946 54.0916 82.2284 54.1418 82.2726C54.1919 82.3167 54.2329 82.3703 54.2623 82.4303C54.2918 82.4903 54.3091 82.5555 54.3133 82.6222C54.3176 82.6889 54.3086 82.7558 54.287 82.819C54.2654 82.8823 54.2316 82.9406 54.1874 82.9908L53.2369 84.0698C53.1901 84.1254 53.1317 84.1701 53.0659 84.2007C53 84.2314 52.9282 84.2472 52.8556 84.2472Z" fill="#FCFFDE"/>
    <path d="M45.0577 93.1106C44.933 93.1102 44.813 93.0629 44.7214 92.9782C44.6713 92.9342 44.6303 92.8806 44.6008 92.8207C44.5713 92.7608 44.5539 92.6957 44.5496 92.6291C44.5453 92.5624 44.5542 92.4956 44.5757 92.4324C44.5973 92.3692 44.631 92.3108 44.6751 92.2607L45.6257 91.1804C45.6691 91.1293 45.7224 91.0874 45.7824 91.0573C45.8423 91.0272 45.9077 91.0095 45.9746 91.0052C46.0416 91.0009 46.1087 91.01 46.172 91.0322C46.2353 91.0543 46.2936 91.089 46.3432 91.134C46.3936 91.1779 46.4349 91.2313 46.4646 91.2912C46.4943 91.3511 46.5118 91.4162 46.5163 91.4829C46.5207 91.5496 46.5119 91.6165 46.4904 91.6798C46.4689 91.743 46.435 91.8014 46.3909 91.8516L45.439 92.9319C45.3924 92.9878 45.3341 93.0328 45.2683 93.0637C45.2024 93.0946 45.1305 93.1106 45.0577 93.1106Z" fill="#FCFFDE"/>
    <path d="M49.5153 101.11C35.9704 101.11 24.949 95.0569 24.949 87.6218C24.949 80.1868 35.9704 74.1339 49.5153 74.1339C52.7023 74.1253 55.8803 74.4721 58.9904 75.1679C59.056 75.1826 59.118 75.2101 59.1728 75.2488C59.2277 75.2876 59.2744 75.3368 59.3102 75.3936C59.346 75.4505 59.3702 75.5138 59.3815 75.5801C59.3927 75.6463 59.3907 75.7141 59.3757 75.7796C59.3415 75.9093 59.2593 76.0213 59.1458 76.0928C59.0323 76.1643 58.8958 76.19 58.764 76.1648C55.7282 75.4856 52.6261 75.1477 49.5153 75.1573C36.5318 75.1573 25.9723 80.7482 25.9723 87.6218C25.9723 94.4955 36.5318 100.086 49.5153 100.086C52.5213 100.095 55.5195 99.7801 58.4582 99.1477C58.5903 99.1214 58.7275 99.1472 58.841 99.2198C58.9546 99.2923 59.0356 99.406 59.0672 99.5369C59.0818 99.6025 59.0833 99.6703 59.0717 99.7364C59.06 99.8026 59.0354 99.8658 58.9992 99.9224C58.963 99.979 58.916 100.028 58.8609 100.066C58.8058 100.105 58.7436 100.132 58.678 100.146C55.6671 100.795 52.5952 101.118 49.5153 101.11Z" fill="#FCFFDE"/>
    <path d="M49.5153 131.514C35.9704 131.514 24.949 125.461 24.949 118.025C24.9557 117.894 25.0125 117.77 25.1077 117.68C25.2029 117.589 25.3293 117.539 25.4607 117.539C25.592 117.539 25.7184 117.589 25.8136 117.68C25.9089 117.77 25.9657 117.894 25.9723 118.025C25.9723 124.899 36.5318 130.49 49.5153 130.49C52.5212 130.498 55.5194 130.184 58.4582 129.552C58.5903 129.526 58.7275 129.552 58.841 129.624C58.9546 129.697 59.0356 129.811 59.0672 129.942C59.0816 130.007 59.083 130.075 59.0713 130.141C59.0595 130.207 59.0349 130.27 58.9987 130.327C58.9626 130.383 58.9156 130.432 58.8606 130.471C58.8056 130.509 58.7435 130.536 58.678 130.551C55.6671 131.199 52.5952 131.522 49.5153 131.514Z" fill="#FCFFDE"/>
    <path d="M49.5154 120.744C35.9706 120.744 24.9491 114.695 24.9491 107.26C24.9456 107.191 24.9562 107.122 24.9804 107.057C25.0045 106.991 25.0416 106.932 25.0895 106.881C25.1373 106.831 25.1949 106.791 25.2588 106.764C25.3226 106.736 25.3914 106.722 25.4608 106.722C25.5303 106.722 25.5991 106.736 25.6629 106.764C25.7267 106.791 25.7843 106.831 25.8322 106.881C25.8801 106.932 25.9172 106.991 25.9413 107.057C25.9654 107.122 25.9761 107.191 25.9725 107.26C25.9725 114.13 36.5319 119.721 49.5154 119.721C52.5213 119.732 55.5196 119.418 58.4584 118.786C58.5905 118.76 58.7277 118.786 58.8412 118.858C58.9547 118.931 59.0358 119.045 59.0674 119.176C59.082 119.241 59.0835 119.309 59.0718 119.375C59.0602 119.441 59.0355 119.504 58.9994 119.561C58.9632 119.618 58.9162 119.666 58.8611 119.705C58.8059 119.743 58.7438 119.77 58.6781 119.785C55.6673 120.433 52.5953 120.755 49.5154 120.744Z" fill="#FCFFDE"/>
    <path d="M49.5153 109.98C35.9704 109.98 24.949 103.931 24.949 96.4958C24.9557 96.3646 25.0125 96.241 25.1077 96.1505C25.2029 96.06 25.3293 96.0095 25.4607 96.0095C25.592 96.0095 25.7184 96.06 25.8136 96.1505C25.9089 96.241 25.9657 96.3646 25.9723 96.4958C25.9723 103.367 36.5318 108.956 49.5153 108.956C52.5213 108.967 55.5197 108.653 58.4582 108.019C58.5901 107.995 58.7264 108.021 58.8394 108.094C58.9525 108.166 59.0339 108.278 59.0672 108.408C59.0816 108.474 59.083 108.541 59.0712 108.607C59.0594 108.673 59.0348 108.736 58.9986 108.793C58.9625 108.849 58.9155 108.898 58.8605 108.936C58.8055 108.975 58.7435 109.002 58.678 109.016C55.6673 109.666 52.5953 109.989 49.5153 109.98Z" fill="#FCFFDE"/>
    <path d="M49.5152 96.9499C38.2474 96.9499 29.4197 92.8551 29.4197 87.627C29.4197 82.399 38.2474 78.3068 49.5152 78.3068C52.2409 78.2971 54.9608 78.5588 57.6346 79.0879C57.7667 79.1159 57.8825 79.1949 57.9568 79.3076C58.0311 79.4203 58.0581 79.5578 58.0318 79.6902C58.0187 79.7561 57.9927 79.8187 57.9552 79.8743C57.9178 79.93 57.8696 79.9777 57.8136 80.0147C57.7576 80.0516 57.6947 80.0771 57.6288 80.0896C57.5629 80.1021 57.4951 80.1013 57.4294 80.0874C54.8214 79.5716 52.1684 79.3166 49.5099 79.3262C39.1689 79.3262 30.4378 83.1258 30.4378 87.6231C30.4378 92.1203 39.1755 95.9226 49.5099 95.9226C52.76 95.9226 55.9745 95.5532 58.7997 94.8555C58.8647 94.8387 58.9324 94.8351 58.9989 94.8447C59.0654 94.8544 59.1293 94.8772 59.1868 94.9119C59.2444 94.9465 59.2945 94.9923 59.3341 95.0464C59.3738 95.1006 59.4023 95.1622 59.4179 95.2275C59.45 95.359 59.4287 95.4978 59.3587 95.6136C59.2888 95.7295 59.1758 95.8129 59.0446 95.8458C55.9232 96.5909 52.7242 96.9615 49.5152 96.9499Z" fill="#FCFFDE"/>
    <path d="M129.644 76.4256C129.508 76.4248 129.378 76.3711 129.281 76.276L96.4765 43.4115L90.6288 33.6689C90.5698 33.5711 90.5451 33.4563 90.5589 33.3429C90.5727 33.2295 90.6241 33.124 90.7049 33.0432C90.7856 32.9625 90.8912 32.9111 91.0046 32.8973C91.118 32.8835 91.2327 32.9081 91.3305 32.9672L100.972 38.7381L133.878 71.6794C133.974 71.7754 134.028 71.9057 134.028 72.0415C134.028 72.1772 133.974 72.3075 133.878 72.4035L130.006 76.276C129.909 76.3708 129.779 76.4245 129.644 76.4256ZM92.5472 34.8816L97.2801 42.7866L129.647 75.193L132.798 72.0421L100.348 39.539L92.5472 34.8816Z" fill="url(#paint1_linear)"/>
    <path d="M119.479 77.7653C119.344 77.765 119.213 77.7112 119.117 77.6157L115.246 73.7433C115.15 73.6472 115.096 73.517 115.096 73.3812C115.096 73.2454 115.15 73.1152 115.246 73.0191L117.422 70.8413C117.518 70.7451 117.649 70.691 117.785 70.691C117.921 70.691 118.051 70.7451 118.148 70.8413C118.244 70.9375 118.298 71.068 118.298 71.204C118.298 71.3401 118.244 71.4706 118.148 71.5668L116.329 73.3819L119.479 76.5314L121.418 74.5906C121.514 74.4945 121.644 74.4407 121.78 74.4408C121.916 74.4409 122.046 74.495 122.142 74.5912C122.238 74.6874 122.292 74.8179 122.292 74.9538C122.292 75.0897 122.238 75.22 122.142 75.3161L119.842 77.6157C119.746 77.7115 119.615 77.7652 119.479 77.7653Z" fill="#F0A8A2"/>
    <path d="M132.638 64.6163C132.57 64.6165 132.504 64.6034 132.442 64.5778C132.38 64.5521 132.324 64.5143 132.276 64.4667C132.18 64.3706 132.126 64.2404 132.126 64.1046C132.126 63.9688 132.18 63.8386 132.276 63.7425L144.866 51.1522L149.523 43.3518L141.619 48.0808L129.119 60.6049C129.071 60.6525 129.015 60.6903 128.953 60.7161C128.89 60.742 128.824 60.7553 128.756 60.7553C128.689 60.7554 128.622 60.7422 128.56 60.7165C128.498 60.6908 128.442 60.6531 128.394 60.6055C128.346 60.558 128.308 60.5015 128.283 60.4394C128.257 60.3772 128.243 60.3106 128.243 60.2433C128.243 60.176 128.257 60.1093 128.282 60.0471C128.308 59.9849 128.346 59.9284 128.393 59.8807L140.994 47.2798L150.737 41.4335C150.835 41.3777 150.949 41.3551 151.062 41.3689C151.174 41.3828 151.279 41.4323 151.362 41.5103C151.441 41.5914 151.492 41.6968 151.506 41.8098C151.519 41.9229 151.495 42.0373 151.437 42.1352L145.667 51.7771L133 64.4667C132.953 64.5144 132.896 64.5521 132.834 64.5778C132.772 64.6035 132.705 64.6166 132.638 64.6163Z" fill="url(#paint2_linear)"/>
    <path d="M125.073 122.965C121.509 122.964 117.955 122.619 114.458 121.935C114.326 121.907 114.21 121.828 114.136 121.715C114.062 121.603 114.035 121.466 114.06 121.334C114.092 121.204 114.172 121.091 114.283 121.017C114.394 120.943 114.53 120.915 114.661 120.936C118.093 121.609 121.581 121.947 125.078 121.947C154.713 121.947 178.828 97.8357 178.828 68.1962C178.828 38.5568 154.719 14.4459 125.078 14.4459C96.0289 14.4459 72.437 37.168 71.3673 66.1773C71.3625 66.3093 71.3068 66.4344 71.2117 66.5262C71.1167 66.6181 70.9898 66.6695 70.8576 66.6698C70.8511 66.6716 70.8442 66.6716 70.8378 66.6698C70.7707 66.6674 70.7048 66.6518 70.6437 66.6238C70.5827 66.5959 70.5278 66.5562 70.4822 66.507C70.4366 66.4578 70.4011 66.4001 70.3778 66.3371C70.3545 66.2742 70.3439 66.2073 70.3466 66.1402C71.4362 36.5815 95.4769 13.4252 125.078 13.4252C155.277 13.4252 179.848 37.9941 179.848 68.1949C179.848 98.3957 155.267 122.965 125.073 122.965Z" fill="white"/>
    <path d="M125.073 134.359C121.883 134.357 118.698 134.128 115.541 133.674C115.412 133.648 115.298 133.574 115.223 133.467C115.147 133.36 115.115 133.228 115.134 133.099C115.153 132.969 115.221 132.851 115.324 132.77C115.427 132.689 115.557 132.651 115.688 132.663C118.798 133.11 121.937 133.335 125.08 133.336C161 133.336 190.215 104.112 190.215 68.1935C190.215 32.2748 160.996 3.05766 125.08 3.05766C89.1635 3.05766 59.9437 32.2775 59.9437 68.1935C59.9437 69.1971 59.9662 70.19 60.0099 71.1816C60.0129 71.2483 60.0027 71.3149 59.9799 71.3777C59.9571 71.4405 59.9221 71.4981 59.877 71.5473C59.8318 71.5965 59.7774 71.6363 59.7168 71.6644C59.6562 71.6925 59.5907 71.7084 59.524 71.7111C59.5166 71.713 59.5089 71.713 59.5015 71.7111C59.37 71.7112 59.2436 71.6604 59.1488 71.5693C59.0541 71.4782 58.9982 71.354 58.9931 71.2226C58.9428 70.2182 58.9181 69.2068 58.919 68.1882C58.919 31.7055 88.6008 2.02502 125.085 2.02502C161.569 2.02502 191.248 31.7055 191.248 68.1882C191.248 104.671 161.556 134.359 125.073 134.359Z" fill="white"/>
    <defs>
        <linearGradient id="paint0_linear" x1="89.7988" y1="32.1351" x2="156.98" y2="46.1385" gradientUnits="userSpaceOnUse">
            <stop stop-color="#EC6F62"/>
            <stop offset="1" stop-color="#A97C9A"/>
        </linearGradient>
        <linearGradient id="paint1_linear" x1="90.5548" y1="32.8931" x2="138.199" y2="40.2583" gradientUnits="userSpaceOnUse">
            <stop stop-color="#F1A8A1"/>
            <stop offset="1" stop-color="#B39AAA"/>
        </linearGradient>
        <linearGradient id="paint2_linear" x1="128.243" y1="41.3648" x2="153.739" y2="45.3141" gradientUnits="userSpaceOnUse">
            <stop stop-color="#F1A8A1"/>
            <stop offset="1" stop-color="#B39AAA"/>
        </linearGradient>
    </defs>
</svg>
