<svg width="26" height="26" viewBox="0 0 26 26" fill="none" xmlns="http://www.w3.org/2000/svg">
    <path d="M4.33325 12.7028C4.33325 12.2915 4.63892 11.9516 5.0355 11.8978L5.14575 11.8903L19.4284 11.891L14.2685 6.75217C13.9505 6.43555 13.9494 5.92111 14.266 5.60312C14.5539 5.31405 15.0052 5.28685 15.3238 5.52218L15.4151 5.60065L21.9693 12.1266C22.0112 12.1684 22.0476 12.2136 22.0785 12.2613C22.0872 12.2756 22.0961 12.2903 22.1045 12.3053C22.1123 12.3181 22.1193 12.3315 22.1259 12.3449C22.135 12.3646 22.144 12.3848 22.1521 12.4055C22.1587 12.4215 22.1643 12.437 22.1693 12.4526C22.1753 12.472 22.1811 12.4926 22.1861 12.5136C22.1898 12.5283 22.1928 12.5424 22.1953 12.5565C22.1989 12.5776 22.202 12.5993 22.2042 12.6214C22.2061 12.6382 22.2073 12.6548 22.2079 12.6715C22.208 12.6816 22.2083 12.6922 22.2083 12.7028L22.2078 12.7343C22.2072 12.7503 22.2061 12.7662 22.2046 12.7821L22.2083 12.7028C22.2083 12.7541 22.2035 12.8043 22.1944 12.8529C22.1923 12.8645 22.1898 12.8765 22.187 12.8883C22.1813 12.9128 22.1746 12.9363 22.1669 12.9594C22.1631 12.9709 22.1587 12.9832 22.154 12.9953C22.1446 13.0198 22.1342 13.0431 22.1229 13.0658C22.1176 13.0765 22.1117 13.0876 22.1055 13.0987C22.0954 13.1167 22.0849 13.1339 22.0738 13.1506C22.066 13.1624 22.0574 13.1748 22.0484 13.1869L22.0413 13.1962C22.0194 13.2248 21.9957 13.2519 21.9703 13.2774L21.9693 13.2781L15.4151 19.8052C15.0972 20.1218 14.5827 20.1208 14.2661 19.8028C13.9782 19.5138 13.9529 19.0623 14.1896 18.7447L14.2685 18.6538L19.4263 13.516L5.14575 13.5153C4.69702 13.5153 4.33325 13.1516 4.33325 12.7028Z" fill="url(#paint0_linear)"/>
    <defs>
        <linearGradient id="paint0_linear" x1="4.33325" y1="12.703" x2="22.2083" y2="12.703" gradientUnits="userSpaceOnUse">
            <stop stop-color="#EB6B5B"/>
            <stop offset="1" stop-color="#ECBAF6"/>
        </linearGradient>
    </defs>
</svg>
