<svg width="65" height="63" viewBox="0 0 65 63" fill="none" xmlns="http://www.w3.org/2000/svg">
    <path d="M35.0078 5.55021C39.9389 2.95375 46.0751 4.87177 48.6831 9.82473L51.7705 15.683C51.9966 16.1124 52.0453 16.6186 51.9029 17.0813C51.7595 17.5474 51.4395 17.9347 51.0077 18.162C49.2352 19.0953 48.5557 21.3033 49.4932 23.0837C50.4306 24.8641 52.6356 25.5533 54.4081 24.62C55.3019 24.1493 56.411 24.496 56.8837 25.3938L59.9678 31.251C62.5758 36.204 60.686 42.3453 55.7549 44.9418L30.4625 58.2594C25.5315 60.8559 19.3964 58.9401 16.7884 53.9871L13.7043 48.1299C13.2315 47.2321 13.5733 46.1215 14.4671 45.6508C16.2418 44.7164 16.9212 42.5084 15.9838 40.728C15.0703 38.9932 12.999 38.4164 11.166 39.3816C10.7364 39.6078 10.236 39.6525 9.77058 39.507C9.30516 39.3615 8.91651 39.0371 8.69043 38.6078L5.51013 32.5574C2.90216 27.6044 4.79084 21.4609 9.72193 18.8645L35.0078 5.55021Z" fill="url(#paint0_linear)"/>
    <defs>
        <linearGradient id="paint0_linear" x1="0.774601" y1="23.5752" x2="52.0797" y2="6.7674" gradientUnits="userSpaceOnUse">
            <stop stop-color="#EC6F62"/>
            <stop offset="1" stop-color="#A97C9A"/>
        </linearGradient>
    </defs>
</svg>
