<svg width="59" height="59" viewBox="0 0 59 59" fill="none" xmlns="http://www.w3.org/2000/svg">
    <path d="M29.5 0.75L28.6957 0.761052C13.1971 1.18747 0.75 13.899 0.75 29.5C0.75 45.3413 13.63 58.25 29.5 58.25C45.3413 58.25 58.25 45.3413 58.25 29.5C58.25 13.63 45.3413 0.75 29.5 0.75ZM23.8075 18C24.67 17.1375 26.0213 17.1375 26.855 18L36.8888 27.9763C37.2913 28.3787 37.5212 28.925 37.5212 29.5C37.5212 30.075 37.2913 30.6213 36.8888 31.0237L26.855 41C26.4525 41.4313 25.9062 41.6325 25.36 41.6325C24.785 41.6325 24.2388 41.4313 23.8075 41C22.9738 40.1375 22.9738 38.7862 23.8363 37.9525L32.3175 29.5L23.8363 21.0475C22.9738 20.2137 22.9738 18.8337 23.8075 18Z" fill="white"/>
</svg>
