<svg width="58" height="58" viewBox="0 0 58 58" fill="none" xmlns="http://www.w3.org/2000/svg">
    <circle cx="28.5" cy="28.5" r="23" transform="rotate(-180 28.5 28.5)" fill="#1F2228"/>
    <path d="M28.75 57.5L27.9457 57.4889C12.4471 57.0625 1.14952e-06 44.351 2.5134e-06 28.75C3.89829e-06 12.9087 12.88 -3.9008e-06 28.75 -2.5134e-06C44.5913 -1.12852e-06 57.5 12.9087 57.5 28.75C57.5 44.62 44.5913 57.5 28.75 57.5ZM23.0575 40.25C23.92 41.1125 25.2713 41.1125 26.105 40.25L36.1388 30.2737C36.5413 29.8712 36.7713 29.325 36.7713 28.75C36.7713 28.175 36.5413 27.6287 36.1388 27.2262L26.105 17.25C25.7025 16.8187 25.1563 16.6175 24.61 16.6175C24.035 16.6175 23.4888 16.8187 23.0575 17.25C22.2238 18.1125 22.2238 19.4637 23.0863 20.2975L31.5675 28.75L23.0863 37.2025C22.2238 38.0362 22.2238 39.4162 23.0575 40.25Z" fill="white"/>
</svg>
