<svg width="59" height="59" viewBox="0 0 59 59" fill="none" xmlns="http://www.w3.org/2000/svg">
    <path d="M29.5 0.75L30.3043 0.761052C45.8029 1.18747 58.25 13.899 58.25 29.5C58.25 45.3413 45.37 58.25 29.5 58.25C13.6587 58.25 0.75 45.3413 0.75 29.5C0.75 13.63 13.6587 0.75 29.5 0.75ZM35.1925 18C34.33 17.1375 32.9788 17.1375 32.145 18L22.1112 27.9763C21.7087 28.3788 21.4788 28.925 21.4788 29.5C21.4788 30.075 21.7087 30.6212 22.1112 31.0237L32.145 41C32.5475 41.4313 33.0938 41.6325 33.64 41.6325C34.215 41.6325 34.7612 41.4313 35.1925 41C36.0262 40.1375 36.0262 38.7863 35.1637 37.9525L26.6825 29.5L35.1637 21.0475C36.0262 20.2138 36.0262 18.8337 35.1925 18Z" fill="white"/>
</svg>
