<svg width="58" height="58" viewBox="0 0 58 58" fill="none" xmlns="http://www.w3.org/2000/svg">
    <circle cx="29" cy="29" r="23" fill="#1F2228"/>
    <path d="M28.75 0L29.5543 0.0110521C45.0529 0.437469 57.5 13.149 57.5 28.75C57.5 44.5913 44.62 57.5 28.75 57.5C12.9087 57.5 0 44.5913 0 28.75C0 12.88 12.9087 0 28.75 0ZM34.4425 17.25C33.58 16.3875 32.2288 16.3875 31.395 17.25L21.3612 27.2263C20.9587 27.6288 20.7288 28.175 20.7288 28.75C20.7288 29.325 20.9587 29.8712 21.3612 30.2737L31.395 40.25C31.7975 40.6813 32.3437 40.8825 32.89 40.8825C33.465 40.8825 34.0112 40.6813 34.4425 40.25C35.2762 39.3875 35.2762 38.0362 34.4137 37.2025L25.9325 28.75L34.4137 20.2975C35.2762 19.4638 35.2762 18.0837 34.4425 17.25Z" fill="white"/>
</svg>
