<svg width="40" height="40" viewBox="0 0 40 40" fill="none" xmlns="http://www.w3.org/2000/svg">
    <path d="M35.2851 24.4592H28.8073C26.4486 24.4592 24.5359 22.5465 24.5359 20.1862C24.5359 17.8275 26.4486 15.9148 28.8073 15.9148H35.2343" stroke="url(#paint0_linear)" stroke-width="1.5" stroke-linecap="round" stroke-linejoin="round"/>
    <path d="M29.5367 20.0886H29.0415" stroke="url(#paint1_linear)" stroke-width="1.5" stroke-linecap="round" stroke-linejoin="round"/>
    <path d="M12.677 13.5729H19.4437" stroke="url(#paint2_linear)" stroke-width="1.5" stroke-linecap="round" stroke-linejoin="round"/>
    <path fill-rule="evenodd" clip-rule="evenodd" d="M4.52344 20.4219C4.52344 9.74733 8.39804 6.19019 20.025 6.19019C31.6504 6.19019 35.525 9.74733 35.525 20.4219C35.525 31.0949 31.6504 34.6537 20.025 34.6537C8.39804 34.6537 4.52344 31.0949 4.52344 20.4219Z" stroke="url(#paint3_linear)" stroke-width="1.5" stroke-linecap="round" stroke-linejoin="round"/>
    <defs>
        <linearGradient id="paint0_linear" x1="24.5358" y1="15.9147" x2="36.1571" y2="18.1779" gradientUnits="userSpaceOnUse">
            <stop stop-color="#EC6F62"/>
            <stop offset="1" stop-color="#A97C9A"/>
        </linearGradient>
        <linearGradient id="paint1_linear" x1="29.0415" y1="20.0886" x2="29.594" y2="20.131" gradientUnits="userSpaceOnUse">
            <stop stop-color="#EC6F62"/>
            <stop offset="1" stop-color="#A97C9A"/>
        </linearGradient>
        <linearGradient id="paint2_linear" x1="12.6769" y1="13.5729" x2="16.2975" y2="17.3653" gradientUnits="userSpaceOnUse">
            <stop stop-color="#EC6F62"/>
            <stop offset="1" stop-color="#A97C9A"/>
        </linearGradient>
        <linearGradient id="paint3_linear" x1="4.52319" y1="6.18991" x2="38.3496" y2="11.8932" gradientUnits="userSpaceOnUse">
            <stop stop-color="#EC6F62"/>
            <stop offset="1" stop-color="#A97C9A"/>
        </linearGradient>
    </defs>
</svg>
